<mxfile host="app.diagrams.net" modified="2023-11-29T11:14:05.867Z" agent="Mozilla/5.0 (Macintosh; Intel Mac OS X 10_15_7) AppleWebKit/537.36 (KHTML, like Gecko) Chrome/119.0.0.0 Safari/537.36" etag="UyiJJveyn9PSSogBLVP3" version="22.1.4" type="google">
  <diagram name="Page-1" id="5zKFmWFO2xt99HNZSIG2">
    <mxGraphModel grid="1" page="1" gridSize="10" guides="1" tooltips="1" connect="1" arrows="1" fold="1" pageScale="1" pageWidth="827" pageHeight="1169" math="0" shadow="0">
      <root>
        <mxCell id="0" />
        <mxCell id="1" parent="0" />
        <mxCell id="4gooobr6W_ZvD0DAPZac-1" value="Authentication" style="shape=hexagon;perimeter=hexagonPerimeter2;whiteSpace=wrap;html=1;fixedSize=1;size=24;" vertex="1" parent="1">
          <mxGeometry x="500" y="400" width="120" height="100" as="geometry" />
        </mxCell>
        <mxCell id="4gooobr6W_ZvD0DAPZac-4" value="User Management" style="shape=hexagon;perimeter=hexagonPerimeter2;whiteSpace=wrap;html=1;fixedSize=1;" vertex="1" parent="1">
          <mxGeometry x="330" y="510" width="120" height="100" as="geometry" />
        </mxCell>
        <mxCell id="4gooobr6W_ZvD0DAPZac-5" value="Headless client" style="shape=hexagon;perimeter=hexagonPerimeter2;whiteSpace=wrap;html=1;fixedSize=1;" vertex="1" parent="1">
          <mxGeometry x="330" y="350" width="120" height="100" as="geometry" />
        </mxCell>
        <mxCell id="4gooobr6W_ZvD0DAPZac-6" value="Game CMS" style="shape=hexagon;perimeter=hexagonPerimeter2;whiteSpace=wrap;html=1;fixedSize=1;" vertex="1" parent="1">
          <mxGeometry x="140" y="410" width="120" height="100" as="geometry" />
        </mxCell>
        <mxCell id="4gooobr6W_ZvD0DAPZac-8" value="" style="endArrow=classic;html=1;rounded=0;entryX=1;entryY=0.75;entryDx=0;entryDy=0;exitX=0;exitY=0.25;exitDx=0;exitDy=0;" edge="1" parent="1" source="4gooobr6W_ZvD0DAPZac-5" target="4gooobr6W_ZvD0DAPZac-15">
          <mxGeometry width="50" height="50" relative="1" as="geometry">
            <mxPoint x="220" y="360" as="sourcePoint" />
            <mxPoint x="310" y="340" as="targetPoint" />
          </mxGeometry>
        </mxCell>
        <mxCell id="4gooobr6W_ZvD0DAPZac-17" value="Priority 1" style="edgeLabel;html=1;align=center;verticalAlign=middle;resizable=0;points=[];" vertex="1" connectable="0" parent="4gooobr6W_ZvD0DAPZac-8">
          <mxGeometry x="-0.2559" y="2" relative="1" as="geometry">
            <mxPoint x="1" as="offset" />
          </mxGeometry>
        </mxCell>
        <mxCell id="4gooobr6W_ZvD0DAPZac-10" value="" style="endArrow=classic;html=1;rounded=0;entryX=0;entryY=0.5;entryDx=0;entryDy=0;exitX=1;exitY=0.75;exitDx=0;exitDy=0;" edge="1" parent="1" source="4gooobr6W_ZvD0DAPZac-5" target="4gooobr6W_ZvD0DAPZac-1">
          <mxGeometry width="50" height="50" relative="1" as="geometry">
            <mxPoint x="616" y="424.5" as="sourcePoint" />
            <mxPoint x="530" y="355.5" as="targetPoint" />
          </mxGeometry>
        </mxCell>
        <mxCell id="4gooobr6W_ZvD0DAPZac-49" value="HTTPS" style="edgeLabel;html=1;align=center;verticalAlign=middle;resizable=0;points=[];" vertex="1" connectable="0" parent="4gooobr6W_ZvD0DAPZac-10">
          <mxGeometry x="-0.2628" relative="1" as="geometry">
            <mxPoint as="offset" />
          </mxGeometry>
        </mxCell>
        <mxCell id="4gooobr6W_ZvD0DAPZac-11" value="" style="endArrow=classic;html=1;rounded=0;exitX=0.5;exitY=1;exitDx=0;exitDy=0;entryX=0.5;entryY=0;entryDx=0;entryDy=0;" edge="1" parent="1" source="4gooobr6W_ZvD0DAPZac-5" target="4gooobr6W_ZvD0DAPZac-46">
          <mxGeometry width="50" height="50" relative="1" as="geometry">
            <mxPoint x="384" y="420" as="sourcePoint" />
            <mxPoint x="390" y="480" as="targetPoint" />
          </mxGeometry>
        </mxCell>
        <mxCell id="4gooobr6W_ZvD0DAPZac-50" value="HTTPS" style="edgeLabel;html=1;align=center;verticalAlign=middle;resizable=0;points=[];" vertex="1" connectable="0" parent="4gooobr6W_ZvD0DAPZac-11">
          <mxGeometry x="0.1" relative="1" as="geometry">
            <mxPoint as="offset" />
          </mxGeometry>
        </mxCell>
        <mxCell id="4gooobr6W_ZvD0DAPZac-12" value="" style="shape=image;verticalLabelPosition=bottom;labelBackgroundColor=default;verticalAlign=top;aspect=fixed;imageAspect=0;image=data:image/png,iVBORw0KGgoAAAANSUhEUgAAAOAAAADgCAMAAAAt85rTAAABI1BMVEX///+jIyHcOC2sKCN0EBKgIiCjIiDFpKTSxsajIB6iNjTgOS7WNizZNyyoJSKeISDbMibRNCuVHhzJMSmeAAC7LCazKSTbLiHeRz3ELyjbLB/1ycfGMCj08fG+LSfBaGPaJxihGhjYAAD76un31dPaHwvVRDvxsq7hwsL29fWgFBHhXlfgUknmfHb98vHZGwDpjYjjaWLuoZyzW1r43Nvo4uLRqKbxu7jgV0/kbmfyt7TupqKFFxbqko3Gg4KtR0bLkZHSiYW9qafc0tHQdXDCcm7QZV+1fHjtZF31z8zphn/doqDburjRWlPqh4Hpem1pCg/Hurq3jIu3o6K9WVbXfnrfqaedNTSwNjOvT07Z1tXLQjvFS0retLOwaWmiT06fSEjNDGAnAAAUKUlEQVR4nO1deV/bxrpGFnJiRiuyZEs2ioxxwDtewCbEQMuhOWRrmra50HuT3u//Kc6MDMSWNMtrFqfn5+ef/prEo3lm3nn3kdbWVlhhhRVWWGGFFVZYYYUVVlhhhRVWWGGFFVZ4PNS3ZlBf9mweHMN3Fy9m8NNlZ9kzekhs9Sfj0JyFX2xfLntWD4bzn9uhb2ZiKBTbz86XPbX7o17d366FhTg7AmSGte129Z98Gg+GX/5l+mnk7mBmLr4OD5Y90cWwO/llnL538xTR+Jf+q2VPdgH0TN9MHLx0iqaPdpc9XRi2OpOuGLlbhNulztaypy2ITmn0YswXzTj8Dy9e7Sx77iLofPRDQdmch2mGxd0fXqeet5sxcihpAukcM83jv5ZNgYrO4Ztit1aI82v1WwWKwJrJPzf9Wvjvkx9RVIejdqGAUkiMq8N+OwwT22gWtPYklbnpFyY7P5bGqR7vj5MUpihMIr1TrM39vd8tji47xzQvwCy2j6vLZnWHantsxiVzFpFXXR3eLQEyC2G/iudfDam/QQVz3Cwtm1mEzk6TrUbC42lk1JlEtt83i823w+hPdukEyS6a3dLSd7E6eteq8bRk2Lv958eTo2L/+G5j9nnWMlT7o2VyxHuSEgcl0f2uFauzCjJuUZJAfq3XX5Ib99vZn02aYomh8DFtgOq+KvJj7Kgenb1/YnKd6ttu6LMUy+wMzfAobZBRV+jnEcewq50/XY7jYDjuCvuaptnqtYdpw/TZkWJ8nLD56onixv4vL8Wdr9p4d1hNX/v+Nogh9uM+TFJX6mExaZpmisOSNiHT7xZGdMHqVPvbXZBfjqVh/zEpdqrvul1h19kc9yZ8FT86aooTJP5dLXy0bay2Q3GZMrVjQaVQ79VEQ/8p/G7/4fXN1vPRpA2ZRfPjZelyRyhlNizttnuAobH9b/df7T2kN/7Xs19fqoCwDqPYKhaLrXGz1/7Y3yUYXQ4pbDvDUr//qwYZ3fTVl0fvHiir2hn2sCoQ0yuzQBgkh13w/TBCrTZ7JDtVgst+D9VqoQ9bvRuStV7n/rI6HDWB6SM6/P4du9GkV6zVCDX24Ox1NbvNL6V7JTn6E1FvTAjbt+OSVL6ATCDbtTgUQ//PxQPHTpsnOugOQgS7tyNvC/xjPKgtb752eYMXCu0FuNU7h7+GNYY/RiLc4hwyBe6mmOPpmSkx48AImuW4ui5vrn9a3zQclamCCt3ah0NQjaMzuhizPOlC6Lfax7uj0gxGu/12i1Jm+f7D/Wj8I57Yq56rywSb6xE2Fa6oFi/eiToAnd0jRgbCxBv7tlTaSdFfnZ1RaeLXGN4AKkaxHTMORMgKbujdEVxff614bFFFZtibiJQcD7DvRH0+CreLVOc5Qr06nJh0vVvoYUnaKdKnilTbdeU73BGMOGpsjqZfPOJR7G/X6G4TKhRHAkuE0aMqJ3+M/U96oKuSgyenE1xf//TaYhsOvI3bfeqs6sPSMTPGbvUE+a0N+0e0iXSH9f30v9NUy3bkecwTxLvoOrbK0WWTvfRJXU5aPsuZNluQ/E+1R9GU5lEpXRFpgevqMocg4bjJUTi+Nkmb0W6R7dIXCrDcT+cjhWExRcVgWxe4cXIUgoQix/L6iRzQ8PMHn6OH22B/IT0vn0moMM2yvSC5eXSChGPODei20WzFkhslvrNbg7u1Va65I0BqIOvp7BgE1z8RhUMd8+XzuZkc8HMsZmsBv/0VPwTCu5cqmhyCmN6mw7A1MYKH/PykebQAwVKRO27Glqm7Ryf4ybEs1py9DTBBVFyA4C6fXyZjwXfwNUeNZuQEQX4wUINneob8zHwEz3WphzBJ8PVrlzOeGuRiBJ/ZfIJmj0KDDpoWjYMYeI8iqXGCSlCm65YIyJGzCYK5Mid0xgj7wLpyn+FxJmaVsYJUirMEP60rnsabqBUokpQgqGTdMvcc+tr+UPwgllohLI2DgwjbSZzHzRnJ9DTeiKrlGphfGkFJ0bk/zxS2jwXpdSbcomEqSS2+j7cEeYEE+TGyJcKOQlBS3ICnnDJms78r4NBcHrfhfUBTaPa8T7MZiabBnxpCniNLEoMghi7zJNwsZMa9CVNQd3pNjlfLoYjl7LtS3fz0SbEsvnAhT84qEo+gJBku1/kwTb+23U9PSHZ2i7WaaG2GMduMd0fQFcpnWfJ3dkyCkiR77ATPFH7m6JgkYi53priMsjITaitJCsxCGPoZleLs3Ogblkd9A6SpdqDP8WMSlBTZdRybPz+SriaJtRZGUUXkf8XT0/jXzX2yKDsfKb/RLMu2sXDyRrJwFJmdp8chSDgqsiWY6YzS84L/NhMl8sNat7s93t/pTNN8sDJv4vFYNuPsBAiSwyh5Qh0CohMp+H6hOO71jvZ3L2cSmNUxP0NKhWo5hpFkJ0YQb2M24DhFQoiuEITFj5NJSsdLZ39xfsiWjZTNEyeIKUoOMygRYBea46Oj9uSY4uXt1hZlh+2lTmEnThBD18sL6HxSNfPxUes2X1U7HUaJSyjkTxkflWUGPQhBolRV2C6igtlq9poC5fm1/kL0Mpon0WRzAYLE+GN1zY82btHa390Rq4MsIKAIaxbb5dCDEpSkrK67AiHjLUHBOxAdUM1/ys92ZD1h9ZKoXM8X8HkEMRRd5juE00kUMk2h4LgDtIDY2iZNevqG5C/mHyVAEMOQRe2G6bfecpP8I8GExi29TNmRhehJ2cqz2LPECBK7wY85byk2R5wEAOhmBTYLTprLksovP4jrgGdKTuy3UtZ1BA+jGbYmrxiaVCBnOkPPcXmK8/sUKyeJnr36aV6UITmMjtg24qCwRc337xSFBRSporKJ2eUa+Z9THvfbmdEQpohNI/ZwhDbALKBfU8ulpZ5oxg1bBTHNQlBpnH7+PX1F906uxBnicEN3BJ1xs1Y7ejWKHYqdbbH9U8su1d9MQe6PQ0ZH6Ym4mEYcDWHTaIbbscqbmIuGNDc9WKDAcJj3EOpfGvkKZDwpGwj7N8XerE6tjvkEEQ71ZP4cZhdc1Uz1iOkhHg5AmxjtoqCjiiW1f5dVFfBBVS8L2j3dnWo+s7b9E6NHYljWRa3NLcesJ8Ywk/FrrakElXg+KGlxgkxDUWY7vvzuL+m+8PP3k6Jpe+IW52Z0J+BncKYwi8el4draW6YGRRnbc3TxOSi6G8T6ErT9lLP4fPKyGOX7NCsALR9eD10ObCGzgcxiq91n8iNNQOJ2AUuQm5KY8sfxVtKDP7vfXV+EPFlnBpTJ5xiuqGlkXDvXNLUMIIejHNlNrfzFK7xrX/6YfypCqu2ADjnxxR1bPGpMm5XlgKye5JapD4wRrLaSUoO0sgtjSE6DcNSYAhd2MgyHrsDjO/g+NQxCKl5QoMLRvYxokjT2MOTA9KbhsEYTbELAxtbj5wdiT3YDgYJ47Dmq44KW0i2zqk14Z/5HuAkBHwywaZRt0bx49ISMVYasIvaD2R4UnnIiJ8N0nK3AcWHHEUuqJ2gbESnPA+jprsOuFVo2tnIJglmXueJYfTsg/RblqQRUKspgowcYlfibTGOE7Mi+pWTVHJUdxWIlIEGmcjMbNkkNsmzYn9A5p1vTbjRVCkEcxHKcEWTbgQviqJAEB31QbPYAw2Vdj+3YI+t7Viq9Ro+jHzYQNEAjy04ZFKF40ZI9DrE/7MmpM8qQkvjNOlwjppUlSsWKCjlI9HYiUqMGDKEYnKiMtJvO+pa0zLZiKAEnvsNDqTIs3lAMQ7lzVFHUZGBAzh7xjzhnL5DmB2Sk7hWDp26iCzdg26hgx9EiVekA5G8qWZlXbMaGJmFneDX6Mq/WgkMql15+pM1V17FNADlkkutZTM2JNMuTk6qKV3zBU2F5elOOqhrAGEKhSGVeBKbK6XVCgeqSkhZHxpcvkCHRGwxZ3eVckcioZdqPxWr0DldSMxlPPOkMgiJ7PJedVawQqw8q2Pjz2ixR2hF/AHo2u46FH+uwTrNwARS7cDbPNiLVk6FxI4scVric3SPXm9heAqDCO03S88ysNdPpdz/I5OYOi56mChQrYCVsJWp8YlIku8yUGTFgI8xtCxUqE0Jr9PhQ8Bs2NdvRgV7cPAxy5NnLSHKKIkPlTg9gBCXSS8oP01VVB1r/71AMXtMRymB/U7BGf70GJohXOGuzo81oEg4soXoDXfd4br4m7ONlG2drixCMJJWbUAInxqNxLU57g1bm6M1ZNE7jb4F4lhOuKrmOxb1TbgUQSSV+OJMefp4FoJfLDxKvgNg6yQvH1qRG7/E0jiqcbiT5cHb0QkwQhN7Vz2m1pSGk9qkohqdyXRyNPy1SOeGIAzD5nN2gXG/tfLkW30Qp6rTkRaFRrYE5N36m3/IgeQ0SIvxJLX4O3zQaoLGkgHtZhmSs6T4SL82i2WVgHU92tEKvT3vRTL16BtpELA8yP0mvBekSphic5UFIB6VM8YJFAZ5ZKNIv435ht5kmYegWL8ERFRvnnEfMWCaZKOa6WDLIK1Ky8p0hRYVu6mvmh+8++MQXAlLE8Qbvvlt060pXppB0x/E4HqdVBiZgsWKfG6DWTGjSv77cXOrQAmCyBbviZZ4uRCR34jiO60TX/5hZFpVoFlDmRnbiz09UeOuTl9pd6wpJtsA4klKyQEFJ0/iunko6XiHsDFdNZm7iBOuxu36k9RTsbhmcUEAEFiRhSh6ql1PXNU5wL3mBSA0A3tEUetkWuCbGYGeXYTpOpvZ2ov8VKICq7LRHCrAqcxe+SwJO0ZG+DspyouQ18/R/qUI7LYh3stBVEmQBUx44AKGeZ2TpcYK0dScXMGDJ6OieBVeXzEPTVJhxmio16nCWm0hZyLQaNkJqWTBNcAdDd3m1vFlYZQfQ8hoFpfT+mKkNTZawjWy6Noo4ZjIeNBOB7RgvQr9dwPT7cfSBDZ2VdcPSSbmFrbusGakWpD0ugi6Qp0KWB3QO3YCVudHsYHqUU7NqhsOOq52UKg4TipFll4ZUD1ja0JnehKbepRTT04ZYrJjtNZoHiKynMGSbEhmTS0ggf5p0TbKWS7NmklL0a+bsWxGqBa6YZeN+8M10yg6sYRn7u0xp8OY63eiJX24O2wNXIYi+QTFPUIW0hEqRUWc76DGfhJXZVgyNZcew2tN1cDMpjm5nYINkExs9ZtJUU9VExpSduscalSepjOuzFOg3LzcgZWzQT3G4yaj9YMXgprh43NqEkmWr1Kh/7nEL2Dfz4NwGo9xpEilh6wGzjEWug8GyCnB2hs7oeSWrTG3jEythGxKzvosiL+Tx6Cl052q6woxjIlw+Czj5Fgtw7Q1Gj+1ZIc0qs2yyeAk7Jd8x/yTVLj88RSw7rP52xI3GQdfMddlml1tUe/GqYBo7RiQ73T1+hQ5Y4eW2sCFUBoZU1Efp7OyVZjkiCTFwCZvk2dm+BHlD4f356ZxbQqL2d4Fr5iQzznw2CcXuKamKxC7GIFt0pPxgDUwwivDYVpe8/mRh88+5qofw0RONHXP5951FCN5kWTnbCEu6343M6UxTbUlYPHLSm3jifs+oiE5EwREeu+8dGqQT0ZRZlUISOooLf7ZydZYoTNTfnArXBkkJm3nvJGORbhbxGSkSsz+V+IQAFZ3Ln75PqQ/Wh/8HqWFndYdT/VItQWec0xRKLvJCWvMbG3uUEu/B4XUDMJKiuA5bUlXbEYiLmA0WKMNruouhIp0wvrExfFGpAAYj8QbbNGZsXiqOWQZFWjkAhY6N/MVXOj2MzvsBrIaNHVV2qQ9ZAf0skjdGsX7swSLOSv6CJp3f8fxfjUYFVJ1zPY75tykVHJIkY509yAseiOrMX38Wew3RyXWlUgG99MHlmA0L68D5vVBIGYoRTiOSAhSfQq7SkK4PhdhFgnr47e+rivjwUfKT+c5k7KY6Nx8giPIyruswYlnyyj9Q9bVx/e2Effbi2Do4/yMP6pmRmNWeyM9SrTuojBaEqIQNPHoHC3zyrXNwkc9DJJXYf3YrsgBw2AnJBmcrlXx+cL7wR3sOryXYmy0MHFLBCoPzsDxQx3BWur5IezcOAO8MYOtT1HO96PbZwM6O/ODeH5Wq733Fggrj6Iq/gmWOnsp6VWESWDgPH+QbdtXnA+BhlDhJhzR22OME0Mthdn98fbhvu9a/DDYaID/VUGTAWy1JW5q4cGYrjasBpSd0ceydneQAL7WSpgpHaBth78zINvKDx/mga33vDKhTJU6tMZJNG9Z/kG2c7T3ed07P8kCNo+jsO8H47yCp/1wjn//8aOwiHBxe5CoAhqR8Qn8dIunNh9C7Ovn5Cb7g/m4DaDcUOT3eYNcWkvQ2Th5cs6Rj7/PfYEn1bJJzQbeCiTLk+1Hi9LBsGm+e7lPR9a3q+QD2ArYsqe46HnazyZczXFLmFadXyetn51v3+krkIniRh0XG0SU9cqFeAYXpONS7hoVCD4WDs5OBBLH+C6Fy9ffJ8r5Gf7B3BnsbIphe/nTv4Mllcw5fc1hSH4Uk9sjyg62n+z47Fc9OoFGjIL9r2ntCnxz1rxJY4TCBFUs+v8Sjl8Te+zffcsA3d1KRzV8N3nzlZzifFvWtzs41LNyg0Ks0DqtPb/SEMLzYaOTuJ6lYOAfJ0tePg73BKeyGXoxefuP/z5bNgY2D83uYxpy+d/7XshnwUf9yBUzhEJC3Y+efKFq4P94TSYUcxmyjcfpUwdDDoHp2UhEOqXKNyrezx8tDPBb23n8TsoxYs3ym3bn9wbG1xQ/+Mb3hD2r1hDAcVFhOXK7R+G3ZU7wvDs8GNAcnm5dODv/Bu3eL6lkjrYKD46yv/yjFycDWXj6P4w1SGc/lyH8qjUZeOvzB3Ol74eD3398MBoPr042Na/zfFyfP/vFnLxX14c7Of9O+rbDCCiussMIKK6ywwgorrLDCCo+F/wALZUoDO4AYXAAAAABJRU5ErkJggg==;" vertex="1" parent="1">
          <mxGeometry x="660" y="370" width="90" height="90" as="geometry" />
        </mxCell>
        <mxCell id="4gooobr6W_ZvD0DAPZac-13" value="" style="shape=image;verticalLabelPosition=bottom;labelBackgroundColor=default;verticalAlign=top;aspect=fixed;imageAspect=0;image=data:image/png,iVBORw0KGgoAAAANSUhEUgAAAOAAAADgCAMAAAAt85rTAAABI1BMVEX///+jIyHcOC2sKCN0EBKgIiCjIiDFpKTSxsajIB6iNjTgOS7WNizZNyyoJSKeISDbMibRNCuVHhzJMSmeAAC7LCazKSTbLiHeRz3ELyjbLB/1ycfGMCj08fG+LSfBaGPaJxihGhjYAAD76un31dPaHwvVRDvxsq7hwsL29fWgFBHhXlfgUknmfHb98vHZGwDpjYjjaWLuoZyzW1r43Nvo4uLRqKbxu7jgV0/kbmfyt7TupqKFFxbqko3Gg4KtR0bLkZHSiYW9qafc0tHQdXDCcm7QZV+1fHjtZF31z8zphn/doqDburjRWlPqh4Hpem1pCg/Hurq3jIu3o6K9WVbXfnrfqaedNTSwNjOvT07Z1tXLQjvFS0retLOwaWmiT06fSEjNDGAnAAAUKUlEQVR4nO1deV/bxrpGFnJiRiuyZEs2ioxxwDtewCbEQMuhOWRrmra50HuT3u//Kc6MDMSWNMtrFqfn5+ef/prEo3lm3nn3kdbWVlhhhRVWWGGFFVZYYYUVVlhhhRVWWGGFFVZ4PNS3ZlBf9mweHMN3Fy9m8NNlZ9kzekhs9Sfj0JyFX2xfLntWD4bzn9uhb2ZiKBTbz86XPbX7o17d366FhTg7AmSGte129Z98Gg+GX/5l+mnk7mBmLr4OD5Y90cWwO/llnL538xTR+Jf+q2VPdgH0TN9MHLx0iqaPdpc9XRi2OpOuGLlbhNulztaypy2ITmn0YswXzTj8Dy9e7Sx77iLofPRDQdmch2mGxd0fXqeet5sxcihpAukcM83jv5ZNgYrO4Ztit1aI82v1WwWKwJrJPzf9Wvjvkx9RVIejdqGAUkiMq8N+OwwT22gWtPYklbnpFyY7P5bGqR7vj5MUpihMIr1TrM39vd8tji47xzQvwCy2j6vLZnWHantsxiVzFpFXXR3eLQEyC2G/iudfDam/QQVz3Cwtm1mEzk6TrUbC42lk1JlEtt83i823w+hPdukEyS6a3dLSd7E6eteq8bRk2Lv958eTo2L/+G5j9nnWMlT7o2VyxHuSEgcl0f2uFauzCjJuUZJAfq3XX5Ib99vZn02aYomh8DFtgOq+KvJj7Kgenb1/YnKd6ttu6LMUy+wMzfAobZBRV+jnEcewq50/XY7jYDjuCvuaptnqtYdpw/TZkWJ8nLD56onixv4vL8Wdr9p4d1hNX/v+Nogh9uM+TFJX6mExaZpmisOSNiHT7xZGdMHqVPvbXZBfjqVh/zEpdqrvul1h19kc9yZ8FT86aooTJP5dLXy0bay2Q3GZMrVjQaVQ79VEQ/8p/G7/4fXN1vPRpA2ZRfPjZelyRyhlNizttnuAobH9b/df7T2kN/7Xs19fqoCwDqPYKhaLrXGz1/7Y3yUYXQ4pbDvDUr//qwYZ3fTVl0fvHiir2hn2sCoQ0yuzQBgkh13w/TBCrTZ7JDtVgst+D9VqoQ9bvRuStV7n/rI6HDWB6SM6/P4du9GkV6zVCDX24Ox1NbvNL6V7JTn6E1FvTAjbt+OSVL6ATCDbtTgUQ//PxQPHTpsnOugOQgS7tyNvC/xjPKgtb752eYMXCu0FuNU7h7+GNYY/RiLc4hwyBe6mmOPpmSkx48AImuW4ui5vrn9a3zQclamCCt3ah0NQjaMzuhizPOlC6Lfax7uj0gxGu/12i1Jm+f7D/Wj8I57Yq56rywSb6xE2Fa6oFi/eiToAnd0jRgbCxBv7tlTaSdFfnZ1RaeLXGN4AKkaxHTMORMgKbujdEVxff614bFFFZtibiJQcD7DvRH0+CreLVOc5Qr06nJh0vVvoYUnaKdKnilTbdeU73BGMOGpsjqZfPOJR7G/X6G4TKhRHAkuE0aMqJ3+M/U96oKuSgyenE1xf//TaYhsOvI3bfeqs6sPSMTPGbvUE+a0N+0e0iXSH9f30v9NUy3bkecwTxLvoOrbK0WWTvfRJXU5aPsuZNluQ/E+1R9GU5lEpXRFpgevqMocg4bjJUTi+Nkmb0W6R7dIXCrDcT+cjhWExRcVgWxe4cXIUgoQix/L6iRzQ8PMHn6OH22B/IT0vn0moMM2yvSC5eXSChGPODei20WzFkhslvrNbg7u1Va65I0BqIOvp7BgE1z8RhUMd8+XzuZkc8HMsZmsBv/0VPwTCu5cqmhyCmN6mw7A1MYKH/PykebQAwVKRO27Glqm7Ryf4ybEs1py9DTBBVFyA4C6fXyZjwXfwNUeNZuQEQX4wUINneob8zHwEz3WphzBJ8PVrlzOeGuRiBJ/ZfIJmj0KDDpoWjYMYeI8iqXGCSlCm65YIyJGzCYK5Mid0xgj7wLpyn+FxJmaVsYJUirMEP60rnsabqBUokpQgqGTdMvcc+tr+UPwgllohLI2DgwjbSZzHzRnJ9DTeiKrlGphfGkFJ0bk/zxS2jwXpdSbcomEqSS2+j7cEeYEE+TGyJcKOQlBS3ICnnDJms78r4NBcHrfhfUBTaPa8T7MZiabBnxpCniNLEoMghi7zJNwsZMa9CVNQd3pNjlfLoYjl7LtS3fz0SbEsvnAhT84qEo+gJBku1/kwTb+23U9PSHZ2i7WaaG2GMduMd0fQFcpnWfJ3dkyCkiR77ATPFH7m6JgkYi53priMsjITaitJCsxCGPoZleLs3Ogblkd9A6SpdqDP8WMSlBTZdRybPz+SriaJtRZGUUXkf8XT0/jXzX2yKDsfKb/RLMu2sXDyRrJwFJmdp8chSDgqsiWY6YzS84L/NhMl8sNat7s93t/pTNN8sDJv4vFYNuPsBAiSwyh5Qh0CohMp+H6hOO71jvZ3L2cSmNUxP0NKhWo5hpFkJ0YQb2M24DhFQoiuEITFj5NJSsdLZ39xfsiWjZTNEyeIKUoOMygRYBea46Oj9uSY4uXt1hZlh+2lTmEnThBD18sL6HxSNfPxUes2X1U7HUaJSyjkTxkflWUGPQhBolRV2C6igtlq9poC5fm1/kL0Mpon0WRzAYLE+GN1zY82btHa390Rq4MsIKAIaxbb5dCDEpSkrK67AiHjLUHBOxAdUM1/ys92ZD1h9ZKoXM8X8HkEMRRd5juE00kUMk2h4LgDtIDY2iZNevqG5C/mHyVAEMOQRe2G6bfecpP8I8GExi29TNmRhehJ2cqz2LPECBK7wY85byk2R5wEAOhmBTYLTprLksovP4jrgGdKTuy3UtZ1BA+jGbYmrxiaVCBnOkPPcXmK8/sUKyeJnr36aV6UITmMjtg24qCwRc337xSFBRSporKJ2eUa+Z9THvfbmdEQpohNI/ZwhDbALKBfU8ulpZ5oxg1bBTHNQlBpnH7+PX1F906uxBnicEN3BJ1xs1Y7ejWKHYqdbbH9U8su1d9MQe6PQ0ZH6Ym4mEYcDWHTaIbbscqbmIuGNDc9WKDAcJj3EOpfGvkKZDwpGwj7N8XerE6tjvkEEQ71ZP4cZhdc1Uz1iOkhHg5AmxjtoqCjiiW1f5dVFfBBVS8L2j3dnWo+s7b9E6NHYljWRa3NLcesJ8Ywk/FrrakElXg+KGlxgkxDUWY7vvzuL+m+8PP3k6Jpe+IW52Z0J+BncKYwi8el4draW6YGRRnbc3TxOSi6G8T6ErT9lLP4fPKyGOX7NCsALR9eD10ObCGzgcxiq91n8iNNQOJ2AUuQm5KY8sfxVtKDP7vfXV+EPFlnBpTJ5xiuqGlkXDvXNLUMIIejHNlNrfzFK7xrX/6YfypCqu2ADjnxxR1bPGpMm5XlgKye5JapD4wRrLaSUoO0sgtjSE6DcNSYAhd2MgyHrsDjO/g+NQxCKl5QoMLRvYxokjT2MOTA9KbhsEYTbELAxtbj5wdiT3YDgYJ47Dmq44KW0i2zqk14Z/5HuAkBHwywaZRt0bx49ISMVYasIvaD2R4UnnIiJ8N0nK3AcWHHEUuqJ2gbESnPA+jprsOuFVo2tnIJglmXueJYfTsg/RblqQRUKspgowcYlfibTGOE7Mi+pWTVHJUdxWIlIEGmcjMbNkkNsmzYn9A5p1vTbjRVCkEcxHKcEWTbgQviqJAEB31QbPYAw2Vdj+3YI+t7Viq9Ro+jHzYQNEAjy04ZFKF40ZI9DrE/7MmpM8qQkvjNOlwjppUlSsWKCjlI9HYiUqMGDKEYnKiMtJvO+pa0zLZiKAEnvsNDqTIs3lAMQ7lzVFHUZGBAzh7xjzhnL5DmB2Sk7hWDp26iCzdg26hgx9EiVekA5G8qWZlXbMaGJmFneDX6Mq/WgkMql15+pM1V17FNADlkkutZTM2JNMuTk6qKV3zBU2F5elOOqhrAGEKhSGVeBKbK6XVCgeqSkhZHxpcvkCHRGwxZ3eVckcioZdqPxWr0DldSMxlPPOkMgiJ7PJedVawQqw8q2Pjz2ixR2hF/AHo2u46FH+uwTrNwARS7cDbPNiLVk6FxI4scVric3SPXm9heAqDCO03S88ysNdPpdz/I5OYOi56mChQrYCVsJWp8YlIku8yUGTFgI8xtCxUqE0Jr9PhQ8Bs2NdvRgV7cPAxy5NnLSHKKIkPlTg9gBCXSS8oP01VVB1r/71AMXtMRymB/U7BGf70GJohXOGuzo81oEg4soXoDXfd4br4m7ONlG2drixCMJJWbUAInxqNxLU57g1bm6M1ZNE7jb4F4lhOuKrmOxb1TbgUQSSV+OJMefp4FoJfLDxKvgNg6yQvH1qRG7/E0jiqcbiT5cHb0QkwQhN7Vz2m1pSGk9qkohqdyXRyNPy1SOeGIAzD5nN2gXG/tfLkW30Qp6rTkRaFRrYE5N36m3/IgeQ0SIvxJLX4O3zQaoLGkgHtZhmSs6T4SL82i2WVgHU92tEKvT3vRTL16BtpELA8yP0mvBekSphic5UFIB6VM8YJFAZ5ZKNIv435ht5kmYegWL8ERFRvnnEfMWCaZKOa6WDLIK1Ky8p0hRYVu6mvmh+8++MQXAlLE8Qbvvlt060pXppB0x/E4HqdVBiZgsWKfG6DWTGjSv77cXOrQAmCyBbviZZ4uRCR34jiO60TX/5hZFpVoFlDmRnbiz09UeOuTl9pd6wpJtsA4klKyQEFJ0/iunko6XiHsDFdNZm7iBOuxu36k9RTsbhmcUEAEFiRhSh6ql1PXNU5wL3mBSA0A3tEUetkWuCbGYGeXYTpOpvZ2ov8VKICq7LRHCrAqcxe+SwJO0ZG+DspyouQ18/R/qUI7LYh3stBVEmQBUx44AKGeZ2TpcYK0dScXMGDJ6OieBVeXzEPTVJhxmio16nCWm0hZyLQaNkJqWTBNcAdDd3m1vFlYZQfQ8hoFpfT+mKkNTZawjWy6Noo4ZjIeNBOB7RgvQr9dwPT7cfSBDZ2VdcPSSbmFrbusGakWpD0ugi6Qp0KWB3QO3YCVudHsYHqUU7NqhsOOq52UKg4TipFll4ZUD1ja0JnehKbepRTT04ZYrJjtNZoHiKynMGSbEhmTS0ggf5p0TbKWS7NmklL0a+bsWxGqBa6YZeN+8M10yg6sYRn7u0xp8OY63eiJX24O2wNXIYi+QTFPUIW0hEqRUWc76DGfhJXZVgyNZcew2tN1cDMpjm5nYINkExs9ZtJUU9VExpSduscalSepjOuzFOg3LzcgZWzQT3G4yaj9YMXgprh43NqEkmWr1Kh/7nEL2Dfz4NwGo9xpEilh6wGzjEWug8GyCnB2hs7oeSWrTG3jEythGxKzvosiL+Tx6Cl052q6woxjIlw+Czj5Fgtw7Q1Gj+1ZIc0qs2yyeAk7Jd8x/yTVLj88RSw7rP52xI3GQdfMddlml1tUe/GqYBo7RiQ73T1+hQ5Y4eW2sCFUBoZU1Efp7OyVZjkiCTFwCZvk2dm+BHlD4f356ZxbQqL2d4Fr5iQzznw2CcXuKamKxC7GIFt0pPxgDUwwivDYVpe8/mRh88+5qofw0RONHXP5951FCN5kWTnbCEu6343M6UxTbUlYPHLSm3jifs+oiE5EwREeu+8dGqQT0ZRZlUISOooLf7ZydZYoTNTfnArXBkkJm3nvJGORbhbxGSkSsz+V+IQAFZ3Ln75PqQ/Wh/8HqWFndYdT/VItQWec0xRKLvJCWvMbG3uUEu/B4XUDMJKiuA5bUlXbEYiLmA0WKMNruouhIp0wvrExfFGpAAYj8QbbNGZsXiqOWQZFWjkAhY6N/MVXOj2MzvsBrIaNHVV2qQ9ZAf0skjdGsX7swSLOSv6CJp3f8fxfjUYFVJ1zPY75tykVHJIkY509yAseiOrMX38Wew3RyXWlUgG99MHlmA0L68D5vVBIGYoRTiOSAhSfQq7SkK4PhdhFgnr47e+rivjwUfKT+c5k7KY6Nx8giPIyruswYlnyyj9Q9bVx/e2Effbi2Do4/yMP6pmRmNWeyM9SrTuojBaEqIQNPHoHC3zyrXNwkc9DJJXYf3YrsgBw2AnJBmcrlXx+cL7wR3sOryXYmy0MHFLBCoPzsDxQx3BWur5IezcOAO8MYOtT1HO96PbZwM6O/ODeH5Wq733Fggrj6Iq/gmWOnsp6VWESWDgPH+QbdtXnA+BhlDhJhzR22OME0Mthdn98fbhvu9a/DDYaID/VUGTAWy1JW5q4cGYrjasBpSd0ceydneQAL7WSpgpHaBth78zINvKDx/mga33vDKhTJU6tMZJNG9Z/kG2c7T3ed07P8kCNo+jsO8H47yCp/1wjn//8aOwiHBxe5CoAhqR8Qn8dIunNh9C7Ovn5Cb7g/m4DaDcUOT3eYNcWkvQ2Th5cs6Rj7/PfYEn1bJJzQbeCiTLk+1Hi9LBsGm+e7lPR9a3q+QD2ArYsqe46HnazyZczXFLmFadXyetn51v3+krkIniRh0XG0SU9cqFeAYXpONS7hoVCD4WDs5OBBLH+C6Fy9ffJ8r5Gf7B3BnsbIphe/nTv4Mllcw5fc1hSH4Uk9sjyg62n+z47Fc9OoFGjIL9r2ntCnxz1rxJY4TCBFUs+v8Sjl8Te+zffcsA3d1KRzV8N3nzlZzifFvWtzs41LNyg0Ks0DqtPb/SEMLzYaOTuJ6lYOAfJ0tePg73BKeyGXoxefuP/z5bNgY2D83uYxpy+d/7XshnwUf9yBUzhEJC3Y+efKFq4P94TSYUcxmyjcfpUwdDDoHp2UhEOqXKNyrezx8tDPBb23n8TsoxYs3ym3bn9wbG1xQ/+Mb3hD2r1hDAcVFhOXK7R+G3ZU7wvDs8GNAcnm5dODv/Bu3eL6lkjrYKD46yv/yjFycDWXj6P4w1SGc/lyH8qjUZeOvzB3Ol74eD3398MBoPr042Na/zfFyfP/vFnLxX14c7Of9O+rbDCCiussMIKK6ywwgorrLDCCo+F/wALZUoDO4AYXAAAAABJRU5ErkJggg==;" vertex="1" parent="1">
          <mxGeometry x="345" y="660" width="90" height="90" as="geometry" />
        </mxCell>
        <mxCell id="4gooobr6W_ZvD0DAPZac-14" value="" style="shape=image;verticalLabelPosition=bottom;labelBackgroundColor=default;verticalAlign=top;aspect=fixed;imageAspect=0;image=data:image/png,iVBORw0KGgoAAAANSUhEUgAAAOAAAADgCAMAAAAt85rTAAABI1BMVEX///+jIyHcOC2sKCN0EBKgIiCjIiDFpKTSxsajIB6iNjTgOS7WNizZNyyoJSKeISDbMibRNCuVHhzJMSmeAAC7LCazKSTbLiHeRz3ELyjbLB/1ycfGMCj08fG+LSfBaGPaJxihGhjYAAD76un31dPaHwvVRDvxsq7hwsL29fWgFBHhXlfgUknmfHb98vHZGwDpjYjjaWLuoZyzW1r43Nvo4uLRqKbxu7jgV0/kbmfyt7TupqKFFxbqko3Gg4KtR0bLkZHSiYW9qafc0tHQdXDCcm7QZV+1fHjtZF31z8zphn/doqDburjRWlPqh4Hpem1pCg/Hurq3jIu3o6K9WVbXfnrfqaedNTSwNjOvT07Z1tXLQjvFS0retLOwaWmiT06fSEjNDGAnAAAUKUlEQVR4nO1deV/bxrpGFnJiRiuyZEs2ioxxwDtewCbEQMuhOWRrmra50HuT3u//Kc6MDMSWNMtrFqfn5+ef/prEo3lm3nn3kdbWVlhhhRVWWGGFFVZYYYUVVlhhhRVWWGGFFVZ4PNS3ZlBf9mweHMN3Fy9m8NNlZ9kzekhs9Sfj0JyFX2xfLntWD4bzn9uhb2ZiKBTbz86XPbX7o17d366FhTg7AmSGte129Z98Gg+GX/5l+mnk7mBmLr4OD5Y90cWwO/llnL538xTR+Jf+q2VPdgH0TN9MHLx0iqaPdpc9XRi2OpOuGLlbhNulztaypy2ITmn0YswXzTj8Dy9e7Sx77iLofPRDQdmch2mGxd0fXqeet5sxcihpAukcM83jv5ZNgYrO4Ztit1aI82v1WwWKwJrJPzf9Wvjvkx9RVIejdqGAUkiMq8N+OwwT22gWtPYklbnpFyY7P5bGqR7vj5MUpihMIr1TrM39vd8tji47xzQvwCy2j6vLZnWHantsxiVzFpFXXR3eLQEyC2G/iudfDam/QQVz3Cwtm1mEzk6TrUbC42lk1JlEtt83i823w+hPdukEyS6a3dLSd7E6eteq8bRk2Lv958eTo2L/+G5j9nnWMlT7o2VyxHuSEgcl0f2uFauzCjJuUZJAfq3XX5Ib99vZn02aYomh8DFtgOq+KvJj7Kgenb1/YnKd6ttu6LMUy+wMzfAobZBRV+jnEcewq50/XY7jYDjuCvuaptnqtYdpw/TZkWJ8nLD56onixv4vL8Wdr9p4d1hNX/v+Nogh9uM+TFJX6mExaZpmisOSNiHT7xZGdMHqVPvbXZBfjqVh/zEpdqrvul1h19kc9yZ8FT86aooTJP5dLXy0bay2Q3GZMrVjQaVQ79VEQ/8p/G7/4fXN1vPRpA2ZRfPjZelyRyhlNizttnuAobH9b/df7T2kN/7Xs19fqoCwDqPYKhaLrXGz1/7Y3yUYXQ4pbDvDUr//qwYZ3fTVl0fvHiir2hn2sCoQ0yuzQBgkh13w/TBCrTZ7JDtVgst+D9VqoQ9bvRuStV7n/rI6HDWB6SM6/P4du9GkV6zVCDX24Ox1NbvNL6V7JTn6E1FvTAjbt+OSVL6ATCDbtTgUQ//PxQPHTpsnOugOQgS7tyNvC/xjPKgtb752eYMXCu0FuNU7h7+GNYY/RiLc4hwyBe6mmOPpmSkx48AImuW4ui5vrn9a3zQclamCCt3ah0NQjaMzuhizPOlC6Lfax7uj0gxGu/12i1Jm+f7D/Wj8I57Yq56rywSb6xE2Fa6oFi/eiToAnd0jRgbCxBv7tlTaSdFfnZ1RaeLXGN4AKkaxHTMORMgKbujdEVxff614bFFFZtibiJQcD7DvRH0+CreLVOc5Qr06nJh0vVvoYUnaKdKnilTbdeU73BGMOGpsjqZfPOJR7G/X6G4TKhRHAkuE0aMqJ3+M/U96oKuSgyenE1xf//TaYhsOvI3bfeqs6sPSMTPGbvUE+a0N+0e0iXSH9f30v9NUy3bkecwTxLvoOrbK0WWTvfRJXU5aPsuZNluQ/E+1R9GU5lEpXRFpgevqMocg4bjJUTi+Nkmb0W6R7dIXCrDcT+cjhWExRcVgWxe4cXIUgoQix/L6iRzQ8PMHn6OH22B/IT0vn0moMM2yvSC5eXSChGPODei20WzFkhslvrNbg7u1Va65I0BqIOvp7BgE1z8RhUMd8+XzuZkc8HMsZmsBv/0VPwTCu5cqmhyCmN6mw7A1MYKH/PykebQAwVKRO27Glqm7Ryf4ybEs1py9DTBBVFyA4C6fXyZjwXfwNUeNZuQEQX4wUINneob8zHwEz3WphzBJ8PVrlzOeGuRiBJ/ZfIJmj0KDDpoWjYMYeI8iqXGCSlCm65YIyJGzCYK5Mid0xgj7wLpyn+FxJmaVsYJUirMEP60rnsabqBUokpQgqGTdMvcc+tr+UPwgllohLI2DgwjbSZzHzRnJ9DTeiKrlGphfGkFJ0bk/zxS2jwXpdSbcomEqSS2+j7cEeYEE+TGyJcKOQlBS3ICnnDJms78r4NBcHrfhfUBTaPa8T7MZiabBnxpCniNLEoMghi7zJNwsZMa9CVNQd3pNjlfLoYjl7LtS3fz0SbEsvnAhT84qEo+gJBku1/kwTb+23U9PSHZ2i7WaaG2GMduMd0fQFcpnWfJ3dkyCkiR77ATPFH7m6JgkYi53priMsjITaitJCsxCGPoZleLs3Ogblkd9A6SpdqDP8WMSlBTZdRybPz+SriaJtRZGUUXkf8XT0/jXzX2yKDsfKb/RLMu2sXDyRrJwFJmdp8chSDgqsiWY6YzS84L/NhMl8sNat7s93t/pTNN8sDJv4vFYNuPsBAiSwyh5Qh0CohMp+H6hOO71jvZ3L2cSmNUxP0NKhWo5hpFkJ0YQb2M24DhFQoiuEITFj5NJSsdLZ39xfsiWjZTNEyeIKUoOMygRYBea46Oj9uSY4uXt1hZlh+2lTmEnThBD18sL6HxSNfPxUes2X1U7HUaJSyjkTxkflWUGPQhBolRV2C6igtlq9poC5fm1/kL0Mpon0WRzAYLE+GN1zY82btHa390Rq4MsIKAIaxbb5dCDEpSkrK67AiHjLUHBOxAdUM1/ys92ZD1h9ZKoXM8X8HkEMRRd5juE00kUMk2h4LgDtIDY2iZNevqG5C/mHyVAEMOQRe2G6bfecpP8I8GExi29TNmRhehJ2cqz2LPECBK7wY85byk2R5wEAOhmBTYLTprLksovP4jrgGdKTuy3UtZ1BA+jGbYmrxiaVCBnOkPPcXmK8/sUKyeJnr36aV6UITmMjtg24qCwRc337xSFBRSporKJ2eUa+Z9THvfbmdEQpohNI/ZwhDbALKBfU8ulpZ5oxg1bBTHNQlBpnH7+PX1F906uxBnicEN3BJ1xs1Y7ejWKHYqdbbH9U8su1d9MQe6PQ0ZH6Ym4mEYcDWHTaIbbscqbmIuGNDc9WKDAcJj3EOpfGvkKZDwpGwj7N8XerE6tjvkEEQ71ZP4cZhdc1Uz1iOkhHg5AmxjtoqCjiiW1f5dVFfBBVS8L2j3dnWo+s7b9E6NHYljWRa3NLcesJ8Ywk/FrrakElXg+KGlxgkxDUWY7vvzuL+m+8PP3k6Jpe+IW52Z0J+BncKYwi8el4draW6YGRRnbc3TxOSi6G8T6ErT9lLP4fPKyGOX7NCsALR9eD10ObCGzgcxiq91n8iNNQOJ2AUuQm5KY8sfxVtKDP7vfXV+EPFlnBpTJ5xiuqGlkXDvXNLUMIIejHNlNrfzFK7xrX/6YfypCqu2ADjnxxR1bPGpMm5XlgKye5JapD4wRrLaSUoO0sgtjSE6DcNSYAhd2MgyHrsDjO/g+NQxCKl5QoMLRvYxokjT2MOTA9KbhsEYTbELAxtbj5wdiT3YDgYJ47Dmq44KW0i2zqk14Z/5HuAkBHwywaZRt0bx49ISMVYasIvaD2R4UnnIiJ8N0nK3AcWHHEUuqJ2gbESnPA+jprsOuFVo2tnIJglmXueJYfTsg/RblqQRUKspgowcYlfibTGOE7Mi+pWTVHJUdxWIlIEGmcjMbNkkNsmzYn9A5p1vTbjRVCkEcxHKcEWTbgQviqJAEB31QbPYAw2Vdj+3YI+t7Viq9Ro+jHzYQNEAjy04ZFKF40ZI9DrE/7MmpM8qQkvjNOlwjppUlSsWKCjlI9HYiUqMGDKEYnKiMtJvO+pa0zLZiKAEnvsNDqTIs3lAMQ7lzVFHUZGBAzh7xjzhnL5DmB2Sk7hWDp26iCzdg26hgx9EiVekA5G8qWZlXbMaGJmFneDX6Mq/WgkMql15+pM1V17FNADlkkutZTM2JNMuTk6qKV3zBU2F5elOOqhrAGEKhSGVeBKbK6XVCgeqSkhZHxpcvkCHRGwxZ3eVckcioZdqPxWr0DldSMxlPPOkMgiJ7PJedVawQqw8q2Pjz2ixR2hF/AHo2u46FH+uwTrNwARS7cDbPNiLVk6FxI4scVric3SPXm9heAqDCO03S88ysNdPpdz/I5OYOi56mChQrYCVsJWp8YlIku8yUGTFgI8xtCxUqE0Jr9PhQ8Bs2NdvRgV7cPAxy5NnLSHKKIkPlTg9gBCXSS8oP01VVB1r/71AMXtMRymB/U7BGf70GJohXOGuzo81oEg4soXoDXfd4br4m7ONlG2drixCMJJWbUAInxqNxLU57g1bm6M1ZNE7jb4F4lhOuKrmOxb1TbgUQSSV+OJMefp4FoJfLDxKvgNg6yQvH1qRG7/E0jiqcbiT5cHb0QkwQhN7Vz2m1pSGk9qkohqdyXRyNPy1SOeGIAzD5nN2gXG/tfLkW30Qp6rTkRaFRrYE5N36m3/IgeQ0SIvxJLX4O3zQaoLGkgHtZhmSs6T4SL82i2WVgHU92tEKvT3vRTL16BtpELA8yP0mvBekSphic5UFIB6VM8YJFAZ5ZKNIv435ht5kmYegWL8ERFRvnnEfMWCaZKOa6WDLIK1Ky8p0hRYVu6mvmh+8++MQXAlLE8Qbvvlt060pXppB0x/E4HqdVBiZgsWKfG6DWTGjSv77cXOrQAmCyBbviZZ4uRCR34jiO60TX/5hZFpVoFlDmRnbiz09UeOuTl9pd6wpJtsA4klKyQEFJ0/iunko6XiHsDFdNZm7iBOuxu36k9RTsbhmcUEAEFiRhSh6ql1PXNU5wL3mBSA0A3tEUetkWuCbGYGeXYTpOpvZ2ov8VKICq7LRHCrAqcxe+SwJO0ZG+DspyouQ18/R/qUI7LYh3stBVEmQBUx44AKGeZ2TpcYK0dScXMGDJ6OieBVeXzEPTVJhxmio16nCWm0hZyLQaNkJqWTBNcAdDd3m1vFlYZQfQ8hoFpfT+mKkNTZawjWy6Noo4ZjIeNBOB7RgvQr9dwPT7cfSBDZ2VdcPSSbmFrbusGakWpD0ugi6Qp0KWB3QO3YCVudHsYHqUU7NqhsOOq52UKg4TipFll4ZUD1ja0JnehKbepRTT04ZYrJjtNZoHiKynMGSbEhmTS0ggf5p0TbKWS7NmklL0a+bsWxGqBa6YZeN+8M10yg6sYRn7u0xp8OY63eiJX24O2wNXIYi+QTFPUIW0hEqRUWc76DGfhJXZVgyNZcew2tN1cDMpjm5nYINkExs9ZtJUU9VExpSduscalSepjOuzFOg3LzcgZWzQT3G4yaj9YMXgprh43NqEkmWr1Kh/7nEL2Dfz4NwGo9xpEilh6wGzjEWug8GyCnB2hs7oeSWrTG3jEythGxKzvosiL+Tx6Cl052q6woxjIlw+Czj5Fgtw7Q1Gj+1ZIc0qs2yyeAk7Jd8x/yTVLj88RSw7rP52xI3GQdfMddlml1tUe/GqYBo7RiQ73T1+hQ5Y4eW2sCFUBoZU1Efp7OyVZjkiCTFwCZvk2dm+BHlD4f356ZxbQqL2d4Fr5iQzznw2CcXuKamKxC7GIFt0pPxgDUwwivDYVpe8/mRh88+5qofw0RONHXP5951FCN5kWTnbCEu6343M6UxTbUlYPHLSm3jifs+oiE5EwREeu+8dGqQT0ZRZlUISOooLf7ZydZYoTNTfnArXBkkJm3nvJGORbhbxGSkSsz+V+IQAFZ3Ln75PqQ/Wh/8HqWFndYdT/VItQWec0xRKLvJCWvMbG3uUEu/B4XUDMJKiuA5bUlXbEYiLmA0WKMNruouhIp0wvrExfFGpAAYj8QbbNGZsXiqOWQZFWjkAhY6N/MVXOj2MzvsBrIaNHVV2qQ9ZAf0skjdGsX7swSLOSv6CJp3f8fxfjUYFVJ1zPY75tykVHJIkY509yAseiOrMX38Wew3RyXWlUgG99MHlmA0L68D5vVBIGYoRTiOSAhSfQq7SkK4PhdhFgnr47e+rivjwUfKT+c5k7KY6Nx8giPIyruswYlnyyj9Q9bVx/e2Effbi2Do4/yMP6pmRmNWeyM9SrTuojBaEqIQNPHoHC3zyrXNwkc9DJJXYf3YrsgBw2AnJBmcrlXx+cL7wR3sOryXYmy0MHFLBCoPzsDxQx3BWur5IezcOAO8MYOtT1HO96PbZwM6O/ODeH5Wq733Fggrj6Iq/gmWOnsp6VWESWDgPH+QbdtXnA+BhlDhJhzR22OME0Mthdn98fbhvu9a/DDYaID/VUGTAWy1JW5q4cGYrjasBpSd0ceydneQAL7WSpgpHaBth78zINvKDx/mga33vDKhTJU6tMZJNG9Z/kG2c7T3ed07P8kCNo+jsO8H47yCp/1wjn//8aOwiHBxe5CoAhqR8Qn8dIunNh9C7Ovn5Cb7g/m4DaDcUOT3eYNcWkvQ2Th5cs6Rj7/PfYEn1bJJzQbeCiTLk+1Hi9LBsGm+e7lPR9a3q+QD2ArYsqe46HnazyZczXFLmFadXyetn51v3+krkIniRh0XG0SU9cqFeAYXpONS7hoVCD4WDs5OBBLH+C6Fy9ffJ8r5Gf7B3BnsbIphe/nTv4Mllcw5fc1hSH4Uk9sjyg62n+z47Fc9OoFGjIL9r2ntCnxz1rxJY4TCBFUs+v8Sjl8Te+zffcsA3d1KRzV8N3nzlZzifFvWtzs41LNyg0Ks0DqtPb/SEMLzYaOTuJ6lYOAfJ0tePg73BKeyGXoxefuP/z5bNgY2D83uYxpy+d/7XshnwUf9yBUzhEJC3Y+efKFq4P94TSYUcxmyjcfpUwdDDoHp2UhEOqXKNyrezx8tDPBb23n8TsoxYs3ym3bn9wbG1xQ/+Mb3hD2r1hDAcVFhOXK7R+G3ZU7wvDs8GNAcnm5dODv/Bu3eL6lkjrYKD46yv/yjFycDWXj6P4w1SGc/lyH8qjUZeOvzB3Ol74eD3398MBoPr042Na/zfFyfP/vFnLxX14c7Of9O+rbDCCiussMIKK6ywwgorrLDCCo+F/wALZUoDO4AYXAAAAABJRU5ErkJggg==;" vertex="1" parent="1">
          <mxGeometry x="30" y="360" width="90" height="90" as="geometry" />
        </mxCell>
        <mxCell id="4gooobr6W_ZvD0DAPZac-15" value="" style="shape=image;verticalLabelPosition=bottom;labelBackgroundColor=default;verticalAlign=top;aspect=fixed;imageAspect=0;image=data:image/png,iVBORw0KGgoAAAANSUhEUgAAAOAAAADgCAMAAAAt85rTAAABI1BMVEX///+jIyHcOC2sKCN0EBKgIiCjIiDFpKTSxsajIB6iNjTgOS7WNizZNyyoJSKeISDbMibRNCuVHhzJMSmeAAC7LCazKSTbLiHeRz3ELyjbLB/1ycfGMCj08fG+LSfBaGPaJxihGhjYAAD76un31dPaHwvVRDvxsq7hwsL29fWgFBHhXlfgUknmfHb98vHZGwDpjYjjaWLuoZyzW1r43Nvo4uLRqKbxu7jgV0/kbmfyt7TupqKFFxbqko3Gg4KtR0bLkZHSiYW9qafc0tHQdXDCcm7QZV+1fHjtZF31z8zphn/doqDburjRWlPqh4Hpem1pCg/Hurq3jIu3o6K9WVbXfnrfqaedNTSwNjOvT07Z1tXLQjvFS0retLOwaWmiT06fSEjNDGAnAAAUKUlEQVR4nO1deV/bxrpGFnJiRiuyZEs2ioxxwDtewCbEQMuhOWRrmra50HuT3u//Kc6MDMSWNMtrFqfn5+ef/prEo3lm3nn3kdbWVlhhhRVWWGGFFVZYYYUVVlhhhRVWWGGFFVZ4PNS3ZlBf9mweHMN3Fy9m8NNlZ9kzekhs9Sfj0JyFX2xfLntWD4bzn9uhb2ZiKBTbz86XPbX7o17d366FhTg7AmSGte129Z98Gg+GX/5l+mnk7mBmLr4OD5Y90cWwO/llnL538xTR+Jf+q2VPdgH0TN9MHLx0iqaPdpc9XRi2OpOuGLlbhNulztaypy2ITmn0YswXzTj8Dy9e7Sx77iLofPRDQdmch2mGxd0fXqeet5sxcihpAukcM83jv5ZNgYrO4Ztit1aI82v1WwWKwJrJPzf9Wvjvkx9RVIejdqGAUkiMq8N+OwwT22gWtPYklbnpFyY7P5bGqR7vj5MUpihMIr1TrM39vd8tji47xzQvwCy2j6vLZnWHantsxiVzFpFXXR3eLQEyC2G/iudfDam/QQVz3Cwtm1mEzk6TrUbC42lk1JlEtt83i823w+hPdukEyS6a3dLSd7E6eteq8bRk2Lv958eTo2L/+G5j9nnWMlT7o2VyxHuSEgcl0f2uFauzCjJuUZJAfq3XX5Ib99vZn02aYomh8DFtgOq+KvJj7Kgenb1/YnKd6ttu6LMUy+wMzfAobZBRV+jnEcewq50/XY7jYDjuCvuaptnqtYdpw/TZkWJ8nLD56onixv4vL8Wdr9p4d1hNX/v+Nogh9uM+TFJX6mExaZpmisOSNiHT7xZGdMHqVPvbXZBfjqVh/zEpdqrvul1h19kc9yZ8FT86aooTJP5dLXy0bay2Q3GZMrVjQaVQ79VEQ/8p/G7/4fXN1vPRpA2ZRfPjZelyRyhlNizttnuAobH9b/df7T2kN/7Xs19fqoCwDqPYKhaLrXGz1/7Y3yUYXQ4pbDvDUr//qwYZ3fTVl0fvHiir2hn2sCoQ0yuzQBgkh13w/TBCrTZ7JDtVgst+D9VqoQ9bvRuStV7n/rI6HDWB6SM6/P4du9GkV6zVCDX24Ox1NbvNL6V7JTn6E1FvTAjbt+OSVL6ATCDbtTgUQ//PxQPHTpsnOugOQgS7tyNvC/xjPKgtb752eYMXCu0FuNU7h7+GNYY/RiLc4hwyBe6mmOPpmSkx48AImuW4ui5vrn9a3zQclamCCt3ah0NQjaMzuhizPOlC6Lfax7uj0gxGu/12i1Jm+f7D/Wj8I57Yq56rywSb6xE2Fa6oFi/eiToAnd0jRgbCxBv7tlTaSdFfnZ1RaeLXGN4AKkaxHTMORMgKbujdEVxff614bFFFZtibiJQcD7DvRH0+CreLVOc5Qr06nJh0vVvoYUnaKdKnilTbdeU73BGMOGpsjqZfPOJR7G/X6G4TKhRHAkuE0aMqJ3+M/U96oKuSgyenE1xf//TaYhsOvI3bfeqs6sPSMTPGbvUE+a0N+0e0iXSH9f30v9NUy3bkecwTxLvoOrbK0WWTvfRJXU5aPsuZNluQ/E+1R9GU5lEpXRFpgevqMocg4bjJUTi+Nkmb0W6R7dIXCrDcT+cjhWExRcVgWxe4cXIUgoQix/L6iRzQ8PMHn6OH22B/IT0vn0moMM2yvSC5eXSChGPODei20WzFkhslvrNbg7u1Va65I0BqIOvp7BgE1z8RhUMd8+XzuZkc8HMsZmsBv/0VPwTCu5cqmhyCmN6mw7A1MYKH/PykebQAwVKRO27Glqm7Ryf4ybEs1py9DTBBVFyA4C6fXyZjwXfwNUeNZuQEQX4wUINneob8zHwEz3WphzBJ8PVrlzOeGuRiBJ/ZfIJmj0KDDpoWjYMYeI8iqXGCSlCm65YIyJGzCYK5Mid0xgj7wLpyn+FxJmaVsYJUirMEP60rnsabqBUokpQgqGTdMvcc+tr+UPwgllohLI2DgwjbSZzHzRnJ9DTeiKrlGphfGkFJ0bk/zxS2jwXpdSbcomEqSS2+j7cEeYEE+TGyJcKOQlBS3ICnnDJms78r4NBcHrfhfUBTaPa8T7MZiabBnxpCniNLEoMghi7zJNwsZMa9CVNQd3pNjlfLoYjl7LtS3fz0SbEsvnAhT84qEo+gJBku1/kwTb+23U9PSHZ2i7WaaG2GMduMd0fQFcpnWfJ3dkyCkiR77ATPFH7m6JgkYi53priMsjITaitJCsxCGPoZleLs3Ogblkd9A6SpdqDP8WMSlBTZdRybPz+SriaJtRZGUUXkf8XT0/jXzX2yKDsfKb/RLMu2sXDyRrJwFJmdp8chSDgqsiWY6YzS84L/NhMl8sNat7s93t/pTNN8sDJv4vFYNuPsBAiSwyh5Qh0CohMp+H6hOO71jvZ3L2cSmNUxP0NKhWo5hpFkJ0YQb2M24DhFQoiuEITFj5NJSsdLZ39xfsiWjZTNEyeIKUoOMygRYBea46Oj9uSY4uXt1hZlh+2lTmEnThBD18sL6HxSNfPxUes2X1U7HUaJSyjkTxkflWUGPQhBolRV2C6igtlq9poC5fm1/kL0Mpon0WRzAYLE+GN1zY82btHa390Rq4MsIKAIaxbb5dCDEpSkrK67AiHjLUHBOxAdUM1/ys92ZD1h9ZKoXM8X8HkEMRRd5juE00kUMk2h4LgDtIDY2iZNevqG5C/mHyVAEMOQRe2G6bfecpP8I8GExi29TNmRhehJ2cqz2LPECBK7wY85byk2R5wEAOhmBTYLTprLksovP4jrgGdKTuy3UtZ1BA+jGbYmrxiaVCBnOkPPcXmK8/sUKyeJnr36aV6UITmMjtg24qCwRc337xSFBRSporKJ2eUa+Z9THvfbmdEQpohNI/ZwhDbALKBfU8ulpZ5oxg1bBTHNQlBpnH7+PX1F906uxBnicEN3BJ1xs1Y7ejWKHYqdbbH9U8su1d9MQe6PQ0ZH6Ym4mEYcDWHTaIbbscqbmIuGNDc9WKDAcJj3EOpfGvkKZDwpGwj7N8XerE6tjvkEEQ71ZP4cZhdc1Uz1iOkhHg5AmxjtoqCjiiW1f5dVFfBBVS8L2j3dnWo+s7b9E6NHYljWRa3NLcesJ8Ywk/FrrakElXg+KGlxgkxDUWY7vvzuL+m+8PP3k6Jpe+IW52Z0J+BncKYwi8el4draW6YGRRnbc3TxOSi6G8T6ErT9lLP4fPKyGOX7NCsALR9eD10ObCGzgcxiq91n8iNNQOJ2AUuQm5KY8sfxVtKDP7vfXV+EPFlnBpTJ5xiuqGlkXDvXNLUMIIejHNlNrfzFK7xrX/6YfypCqu2ADjnxxR1bPGpMm5XlgKye5JapD4wRrLaSUoO0sgtjSE6DcNSYAhd2MgyHrsDjO/g+NQxCKl5QoMLRvYxokjT2MOTA9KbhsEYTbELAxtbj5wdiT3YDgYJ47Dmq44KW0i2zqk14Z/5HuAkBHwywaZRt0bx49ISMVYasIvaD2R4UnnIiJ8N0nK3AcWHHEUuqJ2gbESnPA+jprsOuFVo2tnIJglmXueJYfTsg/RblqQRUKspgowcYlfibTGOE7Mi+pWTVHJUdxWIlIEGmcjMbNkkNsmzYn9A5p1vTbjRVCkEcxHKcEWTbgQviqJAEB31QbPYAw2Vdj+3YI+t7Viq9Ro+jHzYQNEAjy04ZFKF40ZI9DrE/7MmpM8qQkvjNOlwjppUlSsWKCjlI9HYiUqMGDKEYnKiMtJvO+pa0zLZiKAEnvsNDqTIs3lAMQ7lzVFHUZGBAzh7xjzhnL5DmB2Sk7hWDp26iCzdg26hgx9EiVekA5G8qWZlXbMaGJmFneDX6Mq/WgkMql15+pM1V17FNADlkkutZTM2JNMuTk6qKV3zBU2F5elOOqhrAGEKhSGVeBKbK6XVCgeqSkhZHxpcvkCHRGwxZ3eVckcioZdqPxWr0DldSMxlPPOkMgiJ7PJedVawQqw8q2Pjz2ixR2hF/AHo2u46FH+uwTrNwARS7cDbPNiLVk6FxI4scVric3SPXm9heAqDCO03S88ysNdPpdz/I5OYOi56mChQrYCVsJWp8YlIku8yUGTFgI8xtCxUqE0Jr9PhQ8Bs2NdvRgV7cPAxy5NnLSHKKIkPlTg9gBCXSS8oP01VVB1r/71AMXtMRymB/U7BGf70GJohXOGuzo81oEg4soXoDXfd4br4m7ONlG2drixCMJJWbUAInxqNxLU57g1bm6M1ZNE7jb4F4lhOuKrmOxb1TbgUQSSV+OJMefp4FoJfLDxKvgNg6yQvH1qRG7/E0jiqcbiT5cHb0QkwQhN7Vz2m1pSGk9qkohqdyXRyNPy1SOeGIAzD5nN2gXG/tfLkW30Qp6rTkRaFRrYE5N36m3/IgeQ0SIvxJLX4O3zQaoLGkgHtZhmSs6T4SL82i2WVgHU92tEKvT3vRTL16BtpELA8yP0mvBekSphic5UFIB6VM8YJFAZ5ZKNIv435ht5kmYegWL8ERFRvnnEfMWCaZKOa6WDLIK1Ky8p0hRYVu6mvmh+8++MQXAlLE8Qbvvlt060pXppB0x/E4HqdVBiZgsWKfG6DWTGjSv77cXOrQAmCyBbviZZ4uRCR34jiO60TX/5hZFpVoFlDmRnbiz09UeOuTl9pd6wpJtsA4klKyQEFJ0/iunko6XiHsDFdNZm7iBOuxu36k9RTsbhmcUEAEFiRhSh6ql1PXNU5wL3mBSA0A3tEUetkWuCbGYGeXYTpOpvZ2ov8VKICq7LRHCrAqcxe+SwJO0ZG+DspyouQ18/R/qUI7LYh3stBVEmQBUx44AKGeZ2TpcYK0dScXMGDJ6OieBVeXzEPTVJhxmio16nCWm0hZyLQaNkJqWTBNcAdDd3m1vFlYZQfQ8hoFpfT+mKkNTZawjWy6Noo4ZjIeNBOB7RgvQr9dwPT7cfSBDZ2VdcPSSbmFrbusGakWpD0ugi6Qp0KWB3QO3YCVudHsYHqUU7NqhsOOq52UKg4TipFll4ZUD1ja0JnehKbepRTT04ZYrJjtNZoHiKynMGSbEhmTS0ggf5p0TbKWS7NmklL0a+bsWxGqBa6YZeN+8M10yg6sYRn7u0xp8OY63eiJX24O2wNXIYi+QTFPUIW0hEqRUWc76DGfhJXZVgyNZcew2tN1cDMpjm5nYINkExs9ZtJUU9VExpSduscalSepjOuzFOg3LzcgZWzQT3G4yaj9YMXgprh43NqEkmWr1Kh/7nEL2Dfz4NwGo9xpEilh6wGzjEWug8GyCnB2hs7oeSWrTG3jEythGxKzvosiL+Tx6Cl052q6woxjIlw+Czj5Fgtw7Q1Gj+1ZIc0qs2yyeAk7Jd8x/yTVLj88RSw7rP52xI3GQdfMddlml1tUe/GqYBo7RiQ73T1+hQ5Y4eW2sCFUBoZU1Efp7OyVZjkiCTFwCZvk2dm+BHlD4f356ZxbQqL2d4Fr5iQzznw2CcXuKamKxC7GIFt0pPxgDUwwivDYVpe8/mRh88+5qofw0RONHXP5951FCN5kWTnbCEu6343M6UxTbUlYPHLSm3jifs+oiE5EwREeu+8dGqQT0ZRZlUISOooLf7ZydZYoTNTfnArXBkkJm3nvJGORbhbxGSkSsz+V+IQAFZ3Ln75PqQ/Wh/8HqWFndYdT/VItQWec0xRKLvJCWvMbG3uUEu/B4XUDMJKiuA5bUlXbEYiLmA0WKMNruouhIp0wvrExfFGpAAYj8QbbNGZsXiqOWQZFWjkAhY6N/MVXOj2MzvsBrIaNHVV2qQ9ZAf0skjdGsX7swSLOSv6CJp3f8fxfjUYFVJ1zPY75tykVHJIkY509yAseiOrMX38Wew3RyXWlUgG99MHlmA0L68D5vVBIGYoRTiOSAhSfQq7SkK4PhdhFgnr47e+rivjwUfKT+c5k7KY6Nx8giPIyruswYlnyyj9Q9bVx/e2Effbi2Do4/yMP6pmRmNWeyM9SrTuojBaEqIQNPHoHC3zyrXNwkc9DJJXYf3YrsgBw2AnJBmcrlXx+cL7wR3sOryXYmy0MHFLBCoPzsDxQx3BWur5IezcOAO8MYOtT1HO96PbZwM6O/ODeH5Wq733Fggrj6Iq/gmWOnsp6VWESWDgPH+QbdtXnA+BhlDhJhzR22OME0Mthdn98fbhvu9a/DDYaID/VUGTAWy1JW5q4cGYrjasBpSd0ceydneQAL7WSpgpHaBth78zINvKDx/mga33vDKhTJU6tMZJNG9Z/kG2c7T3ed07P8kCNo+jsO8H47yCp/1wjn//8aOwiHBxe5CoAhqR8Qn8dIunNh9C7Ovn5Cb7g/m4DaDcUOT3eYNcWkvQ2Th5cs6Rj7/PfYEn1bJJzQbeCiTLk+1Hi9LBsGm+e7lPR9a3q+QD2ArYsqe46HnazyZczXFLmFadXyetn51v3+krkIniRh0XG0SU9cqFeAYXpONS7hoVCD4WDs5OBBLH+C6Fy9ffJ8r5Gf7B3BnsbIphe/nTv4Mllcw5fc1hSH4Uk9sjyg62n+z47Fc9OoFGjIL9r2ntCnxz1rxJY4TCBFUs+v8Sjl8Te+zffcsA3d1KRzV8N3nzlZzifFvWtzs41LNyg0Ks0DqtPb/SEMLzYaOTuJ6lYOAfJ0tePg73BKeyGXoxefuP/z5bNgY2D83uYxpy+d/7XshnwUf9yBUzhEJC3Y+efKFq4P94TSYUcxmyjcfpUwdDDoHp2UhEOqXKNyrezx8tDPBb23n8TsoxYs3ym3bn9wbG1xQ/+Mb3hD2r1hDAcVFhOXK7R+G3ZU7wvDs8GNAcnm5dODv/Bu3eL6lkjrYKD46yv/yjFycDWXj6P4w1SGc/lyH8qjUZeOvzB3Ol74eD3398MBoPr042Na/zfFyfP/vFnLxX14c7Of9O+rbDCCiussMIKK6ywwgorrLDCCo+F/wALZUoDO4AYXAAAAABJRU5ErkJggg==;" vertex="1" parent="1">
          <mxGeometry x="200" y="260" width="90" height="90" as="geometry" />
        </mxCell>
        <mxCell id="4gooobr6W_ZvD0DAPZac-16" value="" style="endArrow=classic;html=1;rounded=0;entryX=1;entryY=0.5;entryDx=0;entryDy=0;exitX=0;exitY=0.75;exitDx=0;exitDy=0;" edge="1" parent="1" source="4gooobr6W_ZvD0DAPZac-5" target="4gooobr6W_ZvD0DAPZac-6">
          <mxGeometry width="50" height="50" relative="1" as="geometry">
            <mxPoint x="356" y="400" as="sourcePoint" />
            <mxPoint x="320" y="388" as="targetPoint" />
          </mxGeometry>
        </mxCell>
        <mxCell id="4gooobr6W_ZvD0DAPZac-18" value="HTTPS" style="edgeLabel;html=1;align=center;verticalAlign=middle;resizable=0;points=[];" vertex="1" connectable="0" parent="4gooobr6W_ZvD0DAPZac-16">
          <mxGeometry x="-0.0602" relative="1" as="geometry">
            <mxPoint as="offset" />
          </mxGeometry>
        </mxCell>
        <mxCell id="4gooobr6W_ZvD0DAPZac-22" value="" style="endArrow=classic;html=1;rounded=0;entryX=1;entryY=0.5;entryDx=0;entryDy=0;exitX=0;exitY=0.25;exitDx=0;exitDy=0;" edge="1" parent="1" source="4gooobr6W_ZvD0DAPZac-6" target="4gooobr6W_ZvD0DAPZac-14">
          <mxGeometry width="50" height="50" relative="1" as="geometry">
            <mxPoint x="156" y="442" as="sourcePoint" />
            <mxPoint x="110" y="400" as="targetPoint" />
          </mxGeometry>
        </mxCell>
        <mxCell id="4gooobr6W_ZvD0DAPZac-23" value="Priority 1" style="edgeLabel;html=1;align=center;verticalAlign=middle;resizable=0;points=[];" vertex="1" connectable="0" parent="4gooobr6W_ZvD0DAPZac-22">
          <mxGeometry x="-0.2559" y="2" relative="1" as="geometry">
            <mxPoint x="1" as="offset" />
          </mxGeometry>
        </mxCell>
        <mxCell id="4gooobr6W_ZvD0DAPZac-24" value="" style="shape=image;verticalLabelPosition=bottom;labelBackgroundColor=default;verticalAlign=top;aspect=fixed;imageAspect=0;image=data:image/png,iVBORw0KGgoAAAANSUhEUgAAAMIAAAEECAMAAABN+RseAAABMlBMVEX///8AK08Skk8QqlAAJ0wAJkwAKU4RplAAI0oAIUn19vjF0NgXQ2QADkAyTWkAJErr7/IAADpEVW1re40AHUcAMFbT2N06VG9bdIvh5uq0wMtmcoQAFUO4xMJPaIAAJk8yRmKwtb0mSGZpgpcZNleIkZ4AADliboGTmqY7W3YAI08AGEQAN1w6T2kTlk/d4+kOnVAAi0EQhk8RjE8FTE8Oe08MbE9yzJfE5NOLnKOMoLB3jJ+bqbYDPU8JW08AL08DN08IZU8DO08GRE8LgFBMYHgFSE8KalAHUk8KYU8Jc08GWFARsVAAHE8jPVw2j3BNsHsenF3k8uuT2K6z48ayzsI0m2ZYpn+e0rdQvnp0rpJ9wp4ys2SZuazn8uyK06ZPtHpjqYR5mJiCqJuaq66vvLwqkKsRAAASVklEQVR4nO2de3ubSJaHjUxVKBASMghJWEbWLbaELCV2nO0IEifdIYmTtLZnZruz25v0zux2f/+vsBTogriWCiTFz6PfPyECQ73U/dSpw9FRXuIdSfxE0yzTNLuDddWd36aaJkgSvozP7aE5SZpMVLU9lfVOsVKpNJsGQohjwZo45zel2RQrlWpRr5uWpqoT6bsgaQha+1IedKDoJJwDLJMuyJY5xRCVUa3et9qCKu0x+c6L71+URoqTdhYSpD2E4pDAzkDuW0JjD8mfWLJd6rE48RSp94kFCFU7JxdTYafpF7odp3BTvfpoQcCVATOwdpIZUkOrKyIiTv0dMQUDy4ZYmqpbxlA1udhEm7zedxvlFGQNpWYJW6vgvNavGWizwtN6tdHlWMCYydZkKwDTixkCm5b+1vuXm1cYiKonspo7gHXOcBS1d3j7obX5XzlZwc3quTZRklVtApqUMMOb6xZduwWRqOdWnHhtIFI2n+Dlk8InqmzAQs1pPs2TajbLlGmArdtHhbc/UncfUKm1cxhGtWubNKLrGn548qhQeM/Qd4Fcz8zcwvarNLXYU+vlzbGDcENXoz1BUMtYIwYK/RtsvSwcY4Tx9U90bYEnrpWlfZV0hfrJcPhs/NlFKIxvX2cZTbE9jZqA727YF/sJ4Ksnx8ceQmH8fOM+0S+uRp0P1h09AXjz6HiJUCjcDzMgMEinbFzVDnURhq17j2CBcPMqQ5VmGGVK1bZKMn1r2ro/Pl5DKFw/y8IAIVXTqlapi9Hw/nMQYXz9LEt1UEwaBKtJ+7zWh0fHQQTctGbIB3ZEQeA0R5SPGz57chxGKIzf/pihe3hMURl4naN7WOunm+MoBKd7yGApECnaVb5IYhMKC969PY5GKBSeD6kZRIrZAyUCZD4exyIU7qm7uB0irJrTKISbD98/QuunJ0kIY+rJw84QICwcJyEUxh8pJw87Qxh+PE5GKBQoJw+7Qmh9epKKUKAbO+4IAbwMFqMIBMreYTcI8C5UjKJyoUA1aN0NAvgQKkaRCFTz0J0gwLubMEEUQuE5RXXYCcLwPoIgEuGGYu6wCwR494gUgcYcsAuE4cfPpAiF8auNa8MOEEBwZJGEULjeOBt2gNB6G0kQgzB+s6lFY/sIragGNR6hcLNpo7R1BMjEZEIcgjP7+c4QWs9iMiEW4eblZjV62wiRQ4tkhML7zUrSthHAy/HGCBsOM6gQNjBHgjdxBPEIhfuNsoEKoU5shAnP1QgQNpyD0iAcmcRrC+BdZMeckgvjVxsgwAoFwZFmkN7/57gWNRnhdoO+AQxoEBqklSFmgJeGUChsUKFFiwaBvyTMhtareIIkhDF598Z26NZIJjaZYfjnqKkOSS4UiG17YpuKwKkNPZKuIW6Mmo4wJjXIoD71ArpFskoyfJ9QFZIRbolKEuTqGfwYLAJTdOs6gSC5IN0QTRsUO5Njj6WktRowwnhEikBkjxHrGZf/tWJKD9d6lVSOUhBuU5tVVszuhDHRUeJzWtFzZjKE6xSfMYh6VB1CUFYJxbdM8HVC15yKkFKSUE/OVIhW+TcxZ7HeJOCnxKqQgpBoq+egvXK+oGmTeL/vhmBWY6qEf4GWAuE2drhaRnrbl26adWd+rSGQVNOIzAnwJrEqpBWkm3eRFQ0CsaatvfgTqhXP9YrEN7otMeRe5Uw5MyGMIyoDBIrYEdb7Y4GhmniGXWg0fcasV214l9ixpSO8D4y4IYd6V2aw5EunFSoEwwyPTITpaQn4Wln4Y9IAiQBhzbyK02/LEQ5UFqSc/qOoNpkX2mapZcyLFHyZTJCGULhZ9gysIhbrl1pUK6rNACUCO4ruV3hVu9SrIh57tJ4lV4VUhLFbnyFqGjWzHeM1r51z1EYYUI3rG3mpIZgDoyJ+yorwCRliZVRvN2I39gg9LoMdCYKI+uCTav17VoTn+lRIfIbF4AaE3hQGDT25Qf63jHWh8EtyMiTT646yWPOUjpU0VMyM8LfERGj2fFSQySDJKlHNXG4ITxPSoJrVxfQ9o00VzeI3RGwRQeqXVn6yWc3CEPTipk7ZEf4eAzDtQN/4KbtlG6KKHrlLKDvCD1EPV7sVY20kk4txnmvWrPBmxn/kj8BPtDoXHNvns74AQXMktwON+H/kjTDR+iUlbIPLbYkEIlCSLf/d8kWYWKZdjTSa5LnKAxAzs83lDX/I2Dv7ENRp/arHlaOncTkvVEG8d3lgCnjj9R95IPD8xNJHCleON7Lmv9YG8dQKDbqWmrkg/apO9ZFopOy32dZyIUBNJnahkBBhzIgKwXah7a14wtfZJp4YgchCv0WEjNN/Z9q2bwQGvs+I8HbvCK1P2QrS+Hb/CLHeF4QIhI4M2yxIL5NW2ggQCFeft4lwd5sN4RnZyu023UiGz7MhEC4+bxMhwk97E4RrQk+MbSJkWmsrjD8SOhpuFQHQr3hiP0Oih2zZpWr4nHbdGesToR/GVhHAO9rVf1wVopdIckIg3dcGh0mD1bSFKlKfWyoE4t2Fw/f0CM9J/XkqNKvPFqlLVeIaQzLCDWmECdiiIDgSiGNwDBOa1WxL50uhOg2CJJM657XuaXzzsG5JNzIYdJ4kGukWtCTPtmSEe0IERaZzSOL7pHUNxk/dcnDmYZhyh9aPoaETNkrgGVUujD+SOeeBGX0UCZUwmEqCESARgaxfAz1azzyXIc0baa5WrMdzEsI1mV9bkz4PsCZ1orhC8f4wSU6eJJUZcq1sBLhOV0kGGrETnwQEksoMMkQiWUmzufQiC1/HZEOCw/Ob9DeDZtnd2rAa/U56bJi4bIhHuEmdcnJG0kIlgXydibBaeYzNhrtNNoXhTEjbJgkMu73KAprMWPMK49WumAIxjB5lxO8iSWxRIWiWNH+yabwM+e66T8ekriSHzfs5MhtiET4mbHsGnFIMFCGdatYWBJemdlLwv1ZkFx2HEL+VB6DqlRxMsAaoEOzQwITX+vZIiVlKgndvI4pSHELM9kJW4UpyOKAnL9N5hUX6q6sOBYxekgFR5tUYhOuougyUZse0otLa7tFN/8vVyLEJ31AtvSUqIetAMBBJAsI4tOMZcobSMWOi9AoljtKCAZi4ZpmXBLP4uKmsR4UlCl/gEvjrMoQAGZWqbsVGS5ZKiNoIkzLC0kz9fFZlOATmlTxis2rklm13rzB0Ws6y0/H3ZifdxHC2k2omrzCYFqRLtabyhd2ZQUVBZaCkh/Io4MgwHIcUjumc2LKZFgCW11xvkgxeYbBLMMxqCJp12Zf12mwUKkoRCM9rtVP50rI0gvjU0rTqtr4ZrHkQ2aQdozRRBeHXYMN6EyL4cqaqDcK5sHAxrzWZDJJc73ST8e4/Agy/BQn+FuW9E5OG7nk+XmGQq24w5P0j4KH0JUDw9D+JU2DNuGXLndkrTIFT0qw/+vt/+Qk+/z5eJ/hvwts0rFHT1/Xk4BVmKH3S2NE/fPUzfHu6RvAvojfBq+1Oc63/zsM4D5WRHNn5h+X3UXp05s+Fp1/+IPh7qW12jMAoMCevMMRcmYlOqwv9zwrh65m/Pn+J8SX0SzDtUXjzUG5LJAD1zusEk8FVdfjnma8+pzdGqlmblaMGkTmu8kAWNR8PrEbKdywWDJ9/P/u2LEm/JRHwPK/VjYoCoqdCeS9UlY1mp6upk/hCtWiWPn87+/ZbKoEz+BX6AyUpmv0W1toAalZrstUWJtHZMWf4+uvZmdesPo0hwJ/R6OtFUUk2V21nuRAPkmHHlvtTLaK99ZrWf56dzbPhlxCBpDojK/OiVlUI3MK2uOLJcgjB3rkz5uxamuCfqv7gVQVHvzvj6198bRFOuylfnFzNekDhyPZtbz0aCf4mBgfcb3p0BrppOkNoTfj29fjrN4xw9q/Cl78EQXN+rw8GzjQEsvgP8PXEAQx2FLENj83xNAYpiiE6el345czT/yrOf5uKU2LK5Q3SvXOEkFrv/s8j+JM+xu+eEZiW7BL8ZWeJdr5fBE7/CyO86GX/dMy+EGDxT4wgU4b4/R4QGPQC14Ra9nK0RwRcGV7McvgE0d4QgO1UhhfZ77NHBNjBCPSB31faGwIDMAL9RxxW2h9C8899IgxyaEcYxdxnQaKOOe8XbpJeEH8tLEEVmigSU+JAWwnidAdhlP0+UKEgOFLzKMJ5IdB5hTVoQ//7BYv5IFS27BW2fQSlTukVZubQJlVf5IBQPqf1JZkMshclyMgX1Yz3YDP4VKlF2m+E+Rjov3G1UEoMhWQ1hjlU6YyCYpceADOUMn2aKQdxTNY4VZLZ22dGQO4k+ycM+XYtj26aTqgaCtJDJbVvZK/VNILiIK+vkvLCIBzcaevpB0Z1mudnVbUaJDR+5gTAgVmuAFiCfl6O8UTKPf0sqtq5A7gQfZtJiKCXmzhUkq1tfUJ84n5YeKtZAQxFt5KjDWWUNNHqcGt1GxjGYOsfeD7C63oajrKVb+2GLIeMyoDcxyC7JtP61ayay7fCIeDwOpFtZnUv31y8YPUvajPGQAnhK1JTryjVmi5PtX18ct6VpGrtS1kvVkVD2SRHcLlRms3ioN632tv7Ljg5R0MVNMus10bDitg0kJMrbAQOhCwLEE75Y3FUrHcv24I62dvLjxIvSVKjIbStelfvFIvVx5V1Pa4Ui85b75ptrdFwrk1xHzjooIMOOuiggw466KCDDjrooIMOOuigZE3UgJbmskbozHdqi7Jh1a/RyL701m2lbmv9TFHvZ1/R3YZOOLguoHRcHwxJVoJnjFKWiDdb00nY/wYUsSeMJIdd7bjS95gPEQiM+3GaKASo9Ped3ggtEACO5j03kIOB5EPgELc8w118V8ZxT3OEni3Lp6cDzzMNjnwInHwqy7LtuYYAPeMH6bYhDwF2LMmRVgwjVPAJaeLFcICDHIIP5a0Fgrv0JnkvG1b9CN51I68ozRFU/RxrNhXcgyt3v7/mHte6qyqv1a/OF7JNLwP5rvd/WTDdf3Vt2d2o3Zp7pWaV3FO9+Z0E7/fz4O2jEOZumvEIi1xQa4hlWVCFIgfwAarUpYFYnh/rXqIaJe+spzKqdPHvfF3BVzFVA7mXc815M8d35zcrK06JxX/ixUThBxW0ug3gKrqUBWGZC94+j96qsVJ8XnlN17GMLwVcbyHAAVfm31CurlwIFdttI6ahZVDP7boe8G6CKODAmQnB78no/35Xzy1XYiBFDIvfd8RnoJvW6pYhBCG0NQkGouJlQghp8bQpfntckA1y7UgEDr9WLezk4CJMw0/hLnNEgADC5XIrXG4DLOOSdD6/BIniImBV04/ALq9nO87z2s3QbVyERffUcm4zL5mBDpa2Os/TN51O615xgj187Pn5olOM4EX2KGmCILSNEALsTqemrxGfI7D455ovGoeXDNiznNsIzdwROOyeLpTcU2XbOZ54BZdbIbg0R1IliMAOnDos6XD5vDmCG4z2UlkhnM4R3Oc+pkIQ3bnCxHsAN++d5wgIFxjNQ+D0aISLaISy3sDPCyM08kdgRFfeMZqHKX1gCD7BhTv3w0VgF87QDxcBnkweJALHOfMFb/SwnPI8LATuAqvu9QPoQnqACN58QfJuCmz1ISJ410V2bQ8RgTkgHBAOCLtC2MJIdccIONl8H1EjSHo5GWHzRhXYE6dXUUVSBKZaLC72R64hqLh3SkRo4yuEWFOYBCgRmLtSXdfndoJEhLmhAq4ch/0Tz2rRuc2cLRKB6Q2cK/R5KBZY9A8wdKz55k12g955MLfKAG75kUclAUEL7011EUwudBsUiYCv4BZBygNmYd8ZdEo+RpqGdnDDkRaPIJ2GrncRrHCQnsCnvCON85cxxnlmk5HqvAr77yvzQQRmiXCk9ZBnuoALm5iLwM+CKUQnUgoChBD/aRRCeSYsELBBkjVchA6Hj5E3/XePFbcZ0nplzm9J9CbenkHSudxFAPiCsotwpNqzHjbA9Owau0I4msyA7zYsh84DVtUTxK4JcsgLui3JyvoZAFBvkYOqXsLqmM6xYHvHGGdS845l9yrB9E65qul9N6G82fEuwRaMrntcGsxfq2BNHWm8v19wbuq/TcmWg+sDeqe0LnsedVsyw2eWhkBeFVzhu0nC6pifHy9M+BNhpcb6byq/uk3Q4r+OgOPMhW+zkioEtGScxJ7ZjvjJUiZaR3goateuFpoxDxPBaoG5Fn0bVUCRfcoKtv/saN9J2lRBBKhk3QC/cwUQgBIVhP/7ltUUm0tVRL394AiOGppP/GEL2EEHHXTQQQcddNBBBx20H/0/CzGPVR6JzKEAAAAASUVORK5CYII=;" vertex="1" parent="1">
          <mxGeometry x="23" y="460" width="89.31" height="119.69" as="geometry" />
        </mxCell>
        <mxCell id="4gooobr6W_ZvD0DAPZac-27" value="" style="endArrow=classic;html=1;rounded=0;entryX=1;entryY=0.5;entryDx=0;entryDy=0;exitX=0;exitY=0.75;exitDx=0;exitDy=0;" edge="1" parent="1" source="4gooobr6W_ZvD0DAPZac-6" target="4gooobr6W_ZvD0DAPZac-24">
          <mxGeometry width="50" height="50" relative="1" as="geometry">
            <mxPoint x="235" y="490" as="sourcePoint" />
            <mxPoint x="140" y="539" as="targetPoint" />
          </mxGeometry>
        </mxCell>
        <mxCell id="4gooobr6W_ZvD0DAPZac-28" value="Priority 2" style="edgeLabel;html=1;align=center;verticalAlign=middle;resizable=0;points=[];" vertex="1" connectable="0" parent="4gooobr6W_ZvD0DAPZac-27">
          <mxGeometry x="-0.0602" relative="1" as="geometry">
            <mxPoint as="offset" />
          </mxGeometry>
        </mxCell>
        <mxCell id="4gooobr6W_ZvD0DAPZac-29" value="" style="shape=image;verticalLabelPosition=bottom;labelBackgroundColor=default;verticalAlign=top;aspect=fixed;imageAspect=0;image=data:image/png,iVBORw0KGgoAAAANSUhEUgAAAMIAAAEECAMAAABN+RseAAABMlBMVEX///8AK08Skk8QqlAAJ0wAJkwAKU4RplAAI0oAIUn19vjF0NgXQ2QADkAyTWkAJErr7/IAADpEVW1re40AHUcAMFbT2N06VG9bdIvh5uq0wMtmcoQAFUO4xMJPaIAAJk8yRmKwtb0mSGZpgpcZNleIkZ4AADliboGTmqY7W3YAI08AGEQAN1w6T2kTlk/d4+kOnVAAi0EQhk8RjE8FTE8Oe08MbE9yzJfE5NOLnKOMoLB3jJ+bqbYDPU8JW08AL08DN08IZU8DO08GRE8LgFBMYHgFSE8KalAHUk8KYU8Jc08GWFARsVAAHE8jPVw2j3BNsHsenF3k8uuT2K6z48ayzsI0m2ZYpn+e0rdQvnp0rpJ9wp4ys2SZuazn8uyK06ZPtHpjqYR5mJiCqJuaq66vvLwqkKsRAAASVklEQVR4nO2de3ubSJaHjUxVKBASMghJWEbWLbaELCV2nO0IEifdIYmTtLZnZruz25v0zux2f/+vsBTogriWCiTFz6PfPyECQ73U/dSpw9FRXuIdSfxE0yzTNLuDddWd36aaJkgSvozP7aE5SZpMVLU9lfVOsVKpNJsGQohjwZo45zel2RQrlWpRr5uWpqoT6bsgaQha+1IedKDoJJwDLJMuyJY5xRCVUa3et9qCKu0x+c6L71+URoqTdhYSpD2E4pDAzkDuW0JjD8mfWLJd6rE48RSp94kFCFU7JxdTYafpF7odp3BTvfpoQcCVATOwdpIZUkOrKyIiTv0dMQUDy4ZYmqpbxlA1udhEm7zedxvlFGQNpWYJW6vgvNavGWizwtN6tdHlWMCYydZkKwDTixkCm5b+1vuXm1cYiKonspo7gHXOcBS1d3j7obX5XzlZwc3quTZRklVtApqUMMOb6xZduwWRqOdWnHhtIFI2n+Dlk8InqmzAQs1pPs2TajbLlGmArdtHhbc/UncfUKm1cxhGtWubNKLrGn548qhQeM/Qd4Fcz8zcwvarNLXYU+vlzbGDcENXoz1BUMtYIwYK/RtsvSwcY4Tx9U90bYEnrpWlfZV0hfrJcPhs/NlFKIxvX2cZTbE9jZqA727YF/sJ4Ksnx8ceQmH8fOM+0S+uRp0P1h09AXjz6HiJUCjcDzMgMEinbFzVDnURhq17j2CBcPMqQ5VmGGVK1bZKMn1r2ro/Pl5DKFw/y8IAIVXTqlapi9Hw/nMQYXz9LEt1UEwaBKtJ+7zWh0fHQQTctGbIB3ZEQeA0R5SPGz57chxGKIzf/pihe3hMURl4naN7WOunm+MoBKd7yGApECnaVb5IYhMKC969PY5GKBSeD6kZRIrZAyUCZD4exyIU7qm7uB0irJrTKISbD98/QuunJ0kIY+rJw84QICwcJyEUxh8pJw87Qxh+PE5GKBQoJw+7Qmh9epKKUKAbO+4IAbwMFqMIBMreYTcI8C5UjKJyoUA1aN0NAvgQKkaRCFTz0J0gwLubMEEUQuE5RXXYCcLwPoIgEuGGYu6wCwR494gUgcYcsAuE4cfPpAiF8auNa8MOEEBwZJGEULjeOBt2gNB6G0kQgzB+s6lFY/sIragGNR6hcLNpo7R1BMjEZEIcgjP7+c4QWs9iMiEW4eblZjV62wiRQ4tkhML7zUrSthHAy/HGCBsOM6gQNjBHgjdxBPEIhfuNsoEKoU5shAnP1QgQNpyD0iAcmcRrC+BdZMeckgvjVxsgwAoFwZFmkN7/57gWNRnhdoO+AQxoEBqklSFmgJeGUChsUKFFiwaBvyTMhtareIIkhDF598Z26NZIJjaZYfjnqKkOSS4UiG17YpuKwKkNPZKuIW6Mmo4wJjXIoD71ArpFskoyfJ9QFZIRbolKEuTqGfwYLAJTdOs6gSC5IN0QTRsUO5Njj6WktRowwnhEikBkjxHrGZf/tWJKD9d6lVSOUhBuU5tVVszuhDHRUeJzWtFzZjKE6xSfMYh6VB1CUFYJxbdM8HVC15yKkFKSUE/OVIhW+TcxZ7HeJOCnxKqQgpBoq+egvXK+oGmTeL/vhmBWY6qEf4GWAuE2drhaRnrbl26adWd+rSGQVNOIzAnwJrEqpBWkm3eRFQ0CsaatvfgTqhXP9YrEN7otMeRe5Uw5MyGMIyoDBIrYEdb7Y4GhmniGXWg0fcasV214l9ixpSO8D4y4IYd6V2aw5EunFSoEwwyPTITpaQn4Wln4Y9IAiQBhzbyK02/LEQ5UFqSc/qOoNpkX2mapZcyLFHyZTJCGULhZ9gysIhbrl1pUK6rNACUCO4ruV3hVu9SrIh57tJ4lV4VUhLFbnyFqGjWzHeM1r51z1EYYUI3rG3mpIZgDoyJ+yorwCRliZVRvN2I39gg9LoMdCYKI+uCTav17VoTn+lRIfIbF4AaE3hQGDT25Qf63jHWh8EtyMiTT646yWPOUjpU0VMyM8LfERGj2fFSQySDJKlHNXG4ITxPSoJrVxfQ9o00VzeI3RGwRQeqXVn6yWc3CEPTipk7ZEf4eAzDtQN/4KbtlG6KKHrlLKDvCD1EPV7sVY20kk4txnmvWrPBmxn/kj8BPtDoXHNvns74AQXMktwON+H/kjTDR+iUlbIPLbYkEIlCSLf/d8kWYWKZdjTSa5LnKAxAzs83lDX/I2Dv7ENRp/arHlaOncTkvVEG8d3lgCnjj9R95IPD8xNJHCleON7Lmv9YG8dQKDbqWmrkg/apO9ZFopOy32dZyIUBNJnahkBBhzIgKwXah7a14wtfZJp4YgchCv0WEjNN/Z9q2bwQGvs+I8HbvCK1P2QrS+Hb/CLHeF4QIhI4M2yxIL5NW2ggQCFeft4lwd5sN4RnZyu023UiGz7MhEC4+bxMhwk97E4RrQk+MbSJkWmsrjD8SOhpuFQHQr3hiP0Oih2zZpWr4nHbdGesToR/GVhHAO9rVf1wVopdIckIg3dcGh0mD1bSFKlKfWyoE4t2Fw/f0CM9J/XkqNKvPFqlLVeIaQzLCDWmECdiiIDgSiGNwDBOa1WxL50uhOg2CJJM657XuaXzzsG5JNzIYdJ4kGukWtCTPtmSEe0IERaZzSOL7pHUNxk/dcnDmYZhyh9aPoaETNkrgGVUujD+SOeeBGX0UCZUwmEqCESARgaxfAz1azzyXIc0baa5WrMdzEsI1mV9bkz4PsCZ1orhC8f4wSU6eJJUZcq1sBLhOV0kGGrETnwQEksoMMkQiWUmzufQiC1/HZEOCw/Ob9DeDZtnd2rAa/U56bJi4bIhHuEmdcnJG0kIlgXydibBaeYzNhrtNNoXhTEjbJgkMu73KAprMWPMK49WumAIxjB5lxO8iSWxRIWiWNH+yabwM+e66T8ekriSHzfs5MhtiET4mbHsGnFIMFCGdatYWBJemdlLwv1ZkFx2HEL+VB6DqlRxMsAaoEOzQwITX+vZIiVlKgndvI4pSHELM9kJW4UpyOKAnL9N5hUX6q6sOBYxekgFR5tUYhOuougyUZse0otLa7tFN/8vVyLEJ31AtvSUqIetAMBBJAsI4tOMZcobSMWOi9AoljtKCAZi4ZpmXBLP4uKmsR4UlCl/gEvjrMoQAGZWqbsVGS5ZKiNoIkzLC0kz9fFZlOATmlTxis2rklm13rzB0Ws6y0/H3ZifdxHC2k2omrzCYFqRLtabyhd2ZQUVBZaCkh/Io4MgwHIcUjumc2LKZFgCW11xvkgxeYbBLMMxqCJp12Zf12mwUKkoRCM9rtVP50rI0gvjU0rTqtr4ZrHkQ2aQdozRRBeHXYMN6EyL4cqaqDcK5sHAxrzWZDJJc73ST8e4/Agy/BQn+FuW9E5OG7nk+XmGQq24w5P0j4KH0JUDw9D+JU2DNuGXLndkrTIFT0qw/+vt/+Qk+/z5eJ/hvwts0rFHT1/Xk4BVmKH3S2NE/fPUzfHu6RvAvojfBq+1Oc63/zsM4D5WRHNn5h+X3UXp05s+Fp1/+IPh7qW12jMAoMCevMMRcmYlOqwv9zwrh65m/Pn+J8SX0SzDtUXjzUG5LJAD1zusEk8FVdfjnma8+pzdGqlmblaMGkTmu8kAWNR8PrEbKdywWDJ9/P/u2LEm/JRHwPK/VjYoCoqdCeS9UlY1mp6upk/hCtWiWPn87+/ZbKoEz+BX6AyUpmv0W1toAalZrstUWJtHZMWf4+uvZmdesPo0hwJ/R6OtFUUk2V21nuRAPkmHHlvtTLaK99ZrWf56dzbPhlxCBpDojK/OiVlUI3MK2uOLJcgjB3rkz5uxamuCfqv7gVQVHvzvj6198bRFOuylfnFzNekDhyPZtbz0aCf4mBgfcb3p0BrppOkNoTfj29fjrN4xw9q/Cl78EQXN+rw8GzjQEsvgP8PXEAQx2FLENj83xNAYpiiE6el345czT/yrOf5uKU2LK5Q3SvXOEkFrv/s8j+JM+xu+eEZiW7BL8ZWeJdr5fBE7/CyO86GX/dMy+EGDxT4wgU4b4/R4QGPQC14Ra9nK0RwRcGV7McvgE0d4QgO1UhhfZ77NHBNjBCPSB31faGwIDMAL9RxxW2h9C8899IgxyaEcYxdxnQaKOOe8XbpJeEH8tLEEVmigSU+JAWwnidAdhlP0+UKEgOFLzKMJ5IdB5hTVoQ//7BYv5IFS27BW2fQSlTukVZubQJlVf5IBQPqf1JZkMshclyMgX1Yz3YDP4VKlF2m+E+Rjov3G1UEoMhWQ1hjlU6YyCYpceADOUMn2aKQdxTNY4VZLZ22dGQO4k+ycM+XYtj26aTqgaCtJDJbVvZK/VNILiIK+vkvLCIBzcaevpB0Z1mudnVbUaJDR+5gTAgVmuAFiCfl6O8UTKPf0sqtq5A7gQfZtJiKCXmzhUkq1tfUJ84n5YeKtZAQxFt5KjDWWUNNHqcGt1GxjGYOsfeD7C63oajrKVb+2GLIeMyoDcxyC7JtP61ayay7fCIeDwOpFtZnUv31y8YPUvajPGQAnhK1JTryjVmi5PtX18ct6VpGrtS1kvVkVD2SRHcLlRms3ioN632tv7Ljg5R0MVNMus10bDitg0kJMrbAQOhCwLEE75Y3FUrHcv24I62dvLjxIvSVKjIbStelfvFIvVx5V1Pa4Ui85b75ptrdFwrk1xHzjooIMOOuiggw466KCDDjrooIMOOuigZE3UgJbmskbozHdqi7Jh1a/RyL701m2lbmv9TFHvZ1/R3YZOOLguoHRcHwxJVoJnjFKWiDdb00nY/wYUsSeMJIdd7bjS95gPEQiM+3GaKASo9Ped3ggtEACO5j03kIOB5EPgELc8w118V8ZxT3OEni3Lp6cDzzMNjnwInHwqy7LtuYYAPeMH6bYhDwF2LMmRVgwjVPAJaeLFcICDHIIP5a0Fgrv0JnkvG1b9CN51I68ozRFU/RxrNhXcgyt3v7/mHte6qyqv1a/OF7JNLwP5rvd/WTDdf3Vt2d2o3Zp7pWaV3FO9+Z0E7/fz4O2jEOZumvEIi1xQa4hlWVCFIgfwAarUpYFYnh/rXqIaJe+spzKqdPHvfF3BVzFVA7mXc815M8d35zcrK06JxX/ixUThBxW0ug3gKrqUBWGZC94+j96qsVJ8XnlN17GMLwVcbyHAAVfm31CurlwIFdttI6ahZVDP7boe8G6CKODAmQnB78no/35Xzy1XYiBFDIvfd8RnoJvW6pYhBCG0NQkGouJlQghp8bQpfntckA1y7UgEDr9WLezk4CJMw0/hLnNEgADC5XIrXG4DLOOSdD6/BIniImBV04/ALq9nO87z2s3QbVyERffUcm4zL5mBDpa2Os/TN51O615xgj187Pn5olOM4EX2KGmCILSNEALsTqemrxGfI7D455ovGoeXDNiznNsIzdwROOyeLpTcU2XbOZ54BZdbIbg0R1IliMAOnDos6XD5vDmCG4z2UlkhnM4R3Oc+pkIQ3bnCxHsAN++d5wgIFxjNQ+D0aISLaISy3sDPCyM08kdgRFfeMZqHKX1gCD7BhTv3w0VgF87QDxcBnkweJALHOfMFb/SwnPI8LATuAqvu9QPoQnqACN58QfJuCmz1ISJ410V2bQ8RgTkgHBAOCLtC2MJIdccIONl8H1EjSHo5GWHzRhXYE6dXUUVSBKZaLC72R64hqLh3SkRo4yuEWFOYBCgRmLtSXdfndoJEhLmhAq4ch/0Tz2rRuc2cLRKB6Q2cK/R5KBZY9A8wdKz55k12g955MLfKAG75kUclAUEL7011EUwudBsUiYCv4BZBygNmYd8ZdEo+RpqGdnDDkRaPIJ2GrncRrHCQnsCnvCON85cxxnlmk5HqvAr77yvzQQRmiXCk9ZBnuoALm5iLwM+CKUQnUgoChBD/aRRCeSYsELBBkjVchA6Hj5E3/XePFbcZ0nplzm9J9CbenkHSudxFAPiCsotwpNqzHjbA9Owau0I4msyA7zYsh84DVtUTxK4JcsgLui3JyvoZAFBvkYOqXsLqmM6xYHvHGGdS845l9yrB9E65qul9N6G82fEuwRaMrntcGsxfq2BNHWm8v19wbuq/TcmWg+sDeqe0LnsedVsyw2eWhkBeFVzhu0nC6pifHy9M+BNhpcb6byq/uk3Q4r+OgOPMhW+zkioEtGScxJ7ZjvjJUiZaR3goateuFpoxDxPBaoG5Fn0bVUCRfcoKtv/saN9J2lRBBKhk3QC/cwUQgBIVhP/7ltUUm0tVRL394AiOGppP/GEL2EEHHXTQQQcddNBBBx20H/0/CzGPVR6JzKEAAAAASUVORK5CYII=;" vertex="1" parent="1">
          <mxGeometry x="220" y="610" width="89.31" height="119.69" as="geometry" />
        </mxCell>
        <mxCell id="4gooobr6W_ZvD0DAPZac-30" value="" style="shape=image;verticalLabelPosition=bottom;labelBackgroundColor=default;verticalAlign=top;aspect=fixed;imageAspect=0;image=data:image/png,iVBORw0KGgoAAAANSUhEUgAAAMIAAAEECAMAAABN+RseAAABMlBMVEX///8AK08Skk8QqlAAJ0wAJkwAKU4RplAAI0oAIUn19vjF0NgXQ2QADkAyTWkAJErr7/IAADpEVW1re40AHUcAMFbT2N06VG9bdIvh5uq0wMtmcoQAFUO4xMJPaIAAJk8yRmKwtb0mSGZpgpcZNleIkZ4AADliboGTmqY7W3YAI08AGEQAN1w6T2kTlk/d4+kOnVAAi0EQhk8RjE8FTE8Oe08MbE9yzJfE5NOLnKOMoLB3jJ+bqbYDPU8JW08AL08DN08IZU8DO08GRE8LgFBMYHgFSE8KalAHUk8KYU8Jc08GWFARsVAAHE8jPVw2j3BNsHsenF3k8uuT2K6z48ayzsI0m2ZYpn+e0rdQvnp0rpJ9wp4ys2SZuazn8uyK06ZPtHpjqYR5mJiCqJuaq66vvLwqkKsRAAASVklEQVR4nO2de3ubSJaHjUxVKBASMghJWEbWLbaELCV2nO0IEifdIYmTtLZnZruz25v0zux2f/+vsBTogriWCiTFz6PfPyECQ73U/dSpw9FRXuIdSfxE0yzTNLuDddWd36aaJkgSvozP7aE5SZpMVLU9lfVOsVKpNJsGQohjwZo45zel2RQrlWpRr5uWpqoT6bsgaQha+1IedKDoJJwDLJMuyJY5xRCVUa3et9qCKu0x+c6L71+URoqTdhYSpD2E4pDAzkDuW0JjD8mfWLJd6rE48RSp94kFCFU7JxdTYafpF7odp3BTvfpoQcCVATOwdpIZUkOrKyIiTv0dMQUDy4ZYmqpbxlA1udhEm7zedxvlFGQNpWYJW6vgvNavGWizwtN6tdHlWMCYydZkKwDTixkCm5b+1vuXm1cYiKonspo7gHXOcBS1d3j7obX5XzlZwc3quTZRklVtApqUMMOb6xZduwWRqOdWnHhtIFI2n+Dlk8InqmzAQs1pPs2TajbLlGmArdtHhbc/UncfUKm1cxhGtWubNKLrGn548qhQeM/Qd4Fcz8zcwvarNLXYU+vlzbGDcENXoz1BUMtYIwYK/RtsvSwcY4Tx9U90bYEnrpWlfZV0hfrJcPhs/NlFKIxvX2cZTbE9jZqA727YF/sJ4Ksnx8ceQmH8fOM+0S+uRp0P1h09AXjz6HiJUCjcDzMgMEinbFzVDnURhq17j2CBcPMqQ5VmGGVK1bZKMn1r2ro/Pl5DKFw/y8IAIVXTqlapi9Hw/nMQYXz9LEt1UEwaBKtJ+7zWh0fHQQTctGbIB3ZEQeA0R5SPGz57chxGKIzf/pihe3hMURl4naN7WOunm+MoBKd7yGApECnaVb5IYhMKC969PY5GKBSeD6kZRIrZAyUCZD4exyIU7qm7uB0irJrTKISbD98/QuunJ0kIY+rJw84QICwcJyEUxh8pJw87Qxh+PE5GKBQoJw+7Qmh9epKKUKAbO+4IAbwMFqMIBMreYTcI8C5UjKJyoUA1aN0NAvgQKkaRCFTz0J0gwLubMEEUQuE5RXXYCcLwPoIgEuGGYu6wCwR494gUgcYcsAuE4cfPpAiF8auNa8MOEEBwZJGEULjeOBt2gNB6G0kQgzB+s6lFY/sIragGNR6hcLNpo7R1BMjEZEIcgjP7+c4QWs9iMiEW4eblZjV62wiRQ4tkhML7zUrSthHAy/HGCBsOM6gQNjBHgjdxBPEIhfuNsoEKoU5shAnP1QgQNpyD0iAcmcRrC+BdZMeckgvjVxsgwAoFwZFmkN7/57gWNRnhdoO+AQxoEBqklSFmgJeGUChsUKFFiwaBvyTMhtareIIkhDF598Z26NZIJjaZYfjnqKkOSS4UiG17YpuKwKkNPZKuIW6Mmo4wJjXIoD71ArpFskoyfJ9QFZIRbolKEuTqGfwYLAJTdOs6gSC5IN0QTRsUO5Njj6WktRowwnhEikBkjxHrGZf/tWJKD9d6lVSOUhBuU5tVVszuhDHRUeJzWtFzZjKE6xSfMYh6VB1CUFYJxbdM8HVC15yKkFKSUE/OVIhW+TcxZ7HeJOCnxKqQgpBoq+egvXK+oGmTeL/vhmBWY6qEf4GWAuE2drhaRnrbl26adWd+rSGQVNOIzAnwJrEqpBWkm3eRFQ0CsaatvfgTqhXP9YrEN7otMeRe5Uw5MyGMIyoDBIrYEdb7Y4GhmniGXWg0fcasV214l9ixpSO8D4y4IYd6V2aw5EunFSoEwwyPTITpaQn4Wln4Y9IAiQBhzbyK02/LEQ5UFqSc/qOoNpkX2mapZcyLFHyZTJCGULhZ9gysIhbrl1pUK6rNACUCO4ruV3hVu9SrIh57tJ4lV4VUhLFbnyFqGjWzHeM1r51z1EYYUI3rG3mpIZgDoyJ+yorwCRliZVRvN2I39gg9LoMdCYKI+uCTav17VoTn+lRIfIbF4AaE3hQGDT25Qf63jHWh8EtyMiTT646yWPOUjpU0VMyM8LfERGj2fFSQySDJKlHNXG4ITxPSoJrVxfQ9o00VzeI3RGwRQeqXVn6yWc3CEPTipk7ZEf4eAzDtQN/4KbtlG6KKHrlLKDvCD1EPV7sVY20kk4txnmvWrPBmxn/kj8BPtDoXHNvns74AQXMktwON+H/kjTDR+iUlbIPLbYkEIlCSLf/d8kWYWKZdjTSa5LnKAxAzs83lDX/I2Dv7ENRp/arHlaOncTkvVEG8d3lgCnjj9R95IPD8xNJHCleON7Lmv9YG8dQKDbqWmrkg/apO9ZFopOy32dZyIUBNJnahkBBhzIgKwXah7a14wtfZJp4YgchCv0WEjNN/Z9q2bwQGvs+I8HbvCK1P2QrS+Hb/CLHeF4QIhI4M2yxIL5NW2ggQCFeft4lwd5sN4RnZyu023UiGz7MhEC4+bxMhwk97E4RrQk+MbSJkWmsrjD8SOhpuFQHQr3hiP0Oih2zZpWr4nHbdGesToR/GVhHAO9rVf1wVopdIckIg3dcGh0mD1bSFKlKfWyoE4t2Fw/f0CM9J/XkqNKvPFqlLVeIaQzLCDWmECdiiIDgSiGNwDBOa1WxL50uhOg2CJJM657XuaXzzsG5JNzIYdJ4kGukWtCTPtmSEe0IERaZzSOL7pHUNxk/dcnDmYZhyh9aPoaETNkrgGVUujD+SOeeBGX0UCZUwmEqCESARgaxfAz1azzyXIc0baa5WrMdzEsI1mV9bkz4PsCZ1orhC8f4wSU6eJJUZcq1sBLhOV0kGGrETnwQEksoMMkQiWUmzufQiC1/HZEOCw/Ob9DeDZtnd2rAa/U56bJi4bIhHuEmdcnJG0kIlgXydibBaeYzNhrtNNoXhTEjbJgkMu73KAprMWPMK49WumAIxjB5lxO8iSWxRIWiWNH+yabwM+e66T8ekriSHzfs5MhtiET4mbHsGnFIMFCGdatYWBJemdlLwv1ZkFx2HEL+VB6DqlRxMsAaoEOzQwITX+vZIiVlKgndvI4pSHELM9kJW4UpyOKAnL9N5hUX6q6sOBYxekgFR5tUYhOuougyUZse0otLa7tFN/8vVyLEJ31AtvSUqIetAMBBJAsI4tOMZcobSMWOi9AoljtKCAZi4ZpmXBLP4uKmsR4UlCl/gEvjrMoQAGZWqbsVGS5ZKiNoIkzLC0kz9fFZlOATmlTxis2rklm13rzB0Ws6y0/H3ZifdxHC2k2omrzCYFqRLtabyhd2ZQUVBZaCkh/Io4MgwHIcUjumc2LKZFgCW11xvkgxeYbBLMMxqCJp12Zf12mwUKkoRCM9rtVP50rI0gvjU0rTqtr4ZrHkQ2aQdozRRBeHXYMN6EyL4cqaqDcK5sHAxrzWZDJJc73ST8e4/Agy/BQn+FuW9E5OG7nk+XmGQq24w5P0j4KH0JUDw9D+JU2DNuGXLndkrTIFT0qw/+vt/+Qk+/z5eJ/hvwts0rFHT1/Xk4BVmKH3S2NE/fPUzfHu6RvAvojfBq+1Oc63/zsM4D5WRHNn5h+X3UXp05s+Fp1/+IPh7qW12jMAoMCevMMRcmYlOqwv9zwrh65m/Pn+J8SX0SzDtUXjzUG5LJAD1zusEk8FVdfjnma8+pzdGqlmblaMGkTmu8kAWNR8PrEbKdywWDJ9/P/u2LEm/JRHwPK/VjYoCoqdCeS9UlY1mp6upk/hCtWiWPn87+/ZbKoEz+BX6AyUpmv0W1toAalZrstUWJtHZMWf4+uvZmdesPo0hwJ/R6OtFUUk2V21nuRAPkmHHlvtTLaK99ZrWf56dzbPhlxCBpDojK/OiVlUI3MK2uOLJcgjB3rkz5uxamuCfqv7gVQVHvzvj6198bRFOuylfnFzNekDhyPZtbz0aCf4mBgfcb3p0BrppOkNoTfj29fjrN4xw9q/Cl78EQXN+rw8GzjQEsvgP8PXEAQx2FLENj83xNAYpiiE6el345czT/yrOf5uKU2LK5Q3SvXOEkFrv/s8j+JM+xu+eEZiW7BL8ZWeJdr5fBE7/CyO86GX/dMy+EGDxT4wgU4b4/R4QGPQC14Ra9nK0RwRcGV7McvgE0d4QgO1UhhfZ77NHBNjBCPSB31faGwIDMAL9RxxW2h9C8899IgxyaEcYxdxnQaKOOe8XbpJeEH8tLEEVmigSU+JAWwnidAdhlP0+UKEgOFLzKMJ5IdB5hTVoQ//7BYv5IFS27BW2fQSlTukVZubQJlVf5IBQPqf1JZkMshclyMgX1Yz3YDP4VKlF2m+E+Rjov3G1UEoMhWQ1hjlU6YyCYpceADOUMn2aKQdxTNY4VZLZ22dGQO4k+ycM+XYtj26aTqgaCtJDJbVvZK/VNILiIK+vkvLCIBzcaevpB0Z1mudnVbUaJDR+5gTAgVmuAFiCfl6O8UTKPf0sqtq5A7gQfZtJiKCXmzhUkq1tfUJ84n5YeKtZAQxFt5KjDWWUNNHqcGt1GxjGYOsfeD7C63oajrKVb+2GLIeMyoDcxyC7JtP61ayay7fCIeDwOpFtZnUv31y8YPUvajPGQAnhK1JTryjVmi5PtX18ct6VpGrtS1kvVkVD2SRHcLlRms3ioN632tv7Ljg5R0MVNMus10bDitg0kJMrbAQOhCwLEE75Y3FUrHcv24I62dvLjxIvSVKjIbStelfvFIvVx5V1Pa4Ui85b75ptrdFwrk1xHzjooIMOOuiggw466KCDDjrooIMOOuigZE3UgJbmskbozHdqi7Jh1a/RyL701m2lbmv9TFHvZ1/R3YZOOLguoHRcHwxJVoJnjFKWiDdb00nY/wYUsSeMJIdd7bjS95gPEQiM+3GaKASo9Ped3ggtEACO5j03kIOB5EPgELc8w118V8ZxT3OEni3Lp6cDzzMNjnwInHwqy7LtuYYAPeMH6bYhDwF2LMmRVgwjVPAJaeLFcICDHIIP5a0Fgrv0JnkvG1b9CN51I68ozRFU/RxrNhXcgyt3v7/mHte6qyqv1a/OF7JNLwP5rvd/WTDdf3Vt2d2o3Zp7pWaV3FO9+Z0E7/fz4O2jEOZumvEIi1xQa4hlWVCFIgfwAarUpYFYnh/rXqIaJe+spzKqdPHvfF3BVzFVA7mXc815M8d35zcrK06JxX/ixUThBxW0ug3gKrqUBWGZC94+j96qsVJ8XnlN17GMLwVcbyHAAVfm31CurlwIFdttI6ahZVDP7boe8G6CKODAmQnB78no/35Xzy1XYiBFDIvfd8RnoJvW6pYhBCG0NQkGouJlQghp8bQpfntckA1y7UgEDr9WLezk4CJMw0/hLnNEgADC5XIrXG4DLOOSdD6/BIniImBV04/ALq9nO87z2s3QbVyERffUcm4zL5mBDpa2Os/TN51O615xgj187Pn5olOM4EX2KGmCILSNEALsTqemrxGfI7D455ovGoeXDNiznNsIzdwROOyeLpTcU2XbOZ54BZdbIbg0R1IliMAOnDos6XD5vDmCG4z2UlkhnM4R3Oc+pkIQ3bnCxHsAN++d5wgIFxjNQ+D0aISLaISy3sDPCyM08kdgRFfeMZqHKX1gCD7BhTv3w0VgF87QDxcBnkweJALHOfMFb/SwnPI8LATuAqvu9QPoQnqACN58QfJuCmz1ISJ410V2bQ8RgTkgHBAOCLtC2MJIdccIONl8H1EjSHo5GWHzRhXYE6dXUUVSBKZaLC72R64hqLh3SkRo4yuEWFOYBCgRmLtSXdfndoJEhLmhAq4ch/0Tz2rRuc2cLRKB6Q2cK/R5KBZY9A8wdKz55k12g955MLfKAG75kUclAUEL7011EUwudBsUiYCv4BZBygNmYd8ZdEo+RpqGdnDDkRaPIJ2GrncRrHCQnsCnvCON85cxxnlmk5HqvAr77yvzQQRmiXCk9ZBnuoALm5iLwM+CKUQnUgoChBD/aRRCeSYsELBBkjVchA6Hj5E3/XePFbcZ0nplzm9J9CbenkHSudxFAPiCsotwpNqzHjbA9Owau0I4msyA7zYsh84DVtUTxK4JcsgLui3JyvoZAFBvkYOqXsLqmM6xYHvHGGdS845l9yrB9E65qul9N6G82fEuwRaMrntcGsxfq2BNHWm8v19wbuq/TcmWg+sDeqe0LnsedVsyw2eWhkBeFVzhu0nC6pifHy9M+BNhpcb6byq/uk3Q4r+OgOPMhW+zkioEtGScxJ7ZjvjJUiZaR3goateuFpoxDxPBaoG5Fn0bVUCRfcoKtv/saN9J2lRBBKhk3QC/cwUQgBIVhP/7ltUUm0tVRL394AiOGppP/GEL2EEHHXTQQQcddNBBBx20H/0/CzGPVR6JzKEAAAAASUVORK5CYII=;" vertex="1" parent="1">
          <mxGeometry x="660" y="465" width="89.31" height="119.69" as="geometry" />
        </mxCell>
        <mxCell id="4gooobr6W_ZvD0DAPZac-31" value="" style="endArrow=classic;html=1;rounded=0;exitX=1;exitY=0.25;exitDx=0;exitDy=0;entryX=0;entryY=0.5;entryDx=0;entryDy=0;" edge="1" parent="1" source="4gooobr6W_ZvD0DAPZac-1" target="4gooobr6W_ZvD0DAPZac-12">
          <mxGeometry width="50" height="50" relative="1" as="geometry">
            <mxPoint x="340" y="400" as="sourcePoint" />
            <mxPoint x="530" y="330" as="targetPoint" />
          </mxGeometry>
        </mxCell>
        <mxCell id="4gooobr6W_ZvD0DAPZac-32" value="Priority 1" style="edgeLabel;html=1;align=center;verticalAlign=middle;resizable=0;points=[];" vertex="1" connectable="0" parent="4gooobr6W_ZvD0DAPZac-31">
          <mxGeometry x="-0.2559" y="2" relative="1" as="geometry">
            <mxPoint x="1" as="offset" />
          </mxGeometry>
        </mxCell>
        <mxCell id="4gooobr6W_ZvD0DAPZac-33" value="" style="endArrow=classic;html=1;rounded=0;entryX=0;entryY=0.5;entryDx=0;entryDy=0;exitX=1;exitY=0.75;exitDx=0;exitDy=0;" edge="1" parent="1" source="4gooobr6W_ZvD0DAPZac-1" target="4gooobr6W_ZvD0DAPZac-30">
          <mxGeometry width="50" height="50" relative="1" as="geometry">
            <mxPoint x="640" y="501" as="sourcePoint" />
            <mxPoint x="122" y="530" as="targetPoint" />
          </mxGeometry>
        </mxCell>
        <mxCell id="4gooobr6W_ZvD0DAPZac-34" value="Priority 2" style="edgeLabel;html=1;align=center;verticalAlign=middle;resizable=0;points=[];" vertex="1" connectable="0" parent="4gooobr6W_ZvD0DAPZac-33">
          <mxGeometry x="-0.0602" relative="1" as="geometry">
            <mxPoint as="offset" />
          </mxGeometry>
        </mxCell>
        <mxCell id="4gooobr6W_ZvD0DAPZac-35" value="" style="endArrow=classic;html=1;rounded=0;exitX=0.5;exitY=1;exitDx=0;exitDy=0;entryX=0.5;entryY=0;entryDx=0;entryDy=0;" edge="1" parent="1" source="4gooobr6W_ZvD0DAPZac-4" target="4gooobr6W_ZvD0DAPZac-13">
          <mxGeometry width="50" height="50" relative="1" as="geometry">
            <mxPoint x="650" y="469" as="sourcePoint" />
            <mxPoint x="681" y="425" as="targetPoint" />
          </mxGeometry>
        </mxCell>
        <mxCell id="4gooobr6W_ZvD0DAPZac-36" value="Priority 1" style="edgeLabel;html=1;align=center;verticalAlign=middle;resizable=0;points=[];" vertex="1" connectable="0" parent="4gooobr6W_ZvD0DAPZac-35">
          <mxGeometry x="-0.2559" y="2" relative="1" as="geometry">
            <mxPoint x="1" as="offset" />
          </mxGeometry>
        </mxCell>
        <mxCell id="4gooobr6W_ZvD0DAPZac-37" value="" style="endArrow=classic;html=1;rounded=0;entryX=0.5;entryY=0;entryDx=0;entryDy=0;exitX=0;exitY=0.75;exitDx=0;exitDy=0;" edge="1" parent="1" source="4gooobr6W_ZvD0DAPZac-4" target="4gooobr6W_ZvD0DAPZac-29">
          <mxGeometry width="50" height="50" relative="1" as="geometry">
            <mxPoint x="650" y="511" as="sourcePoint" />
            <mxPoint x="690" y="540" as="targetPoint" />
          </mxGeometry>
        </mxCell>
        <mxCell id="4gooobr6W_ZvD0DAPZac-38" value="Priority 2" style="edgeLabel;html=1;align=center;verticalAlign=middle;resizable=0;points=[];" vertex="1" connectable="0" parent="4gooobr6W_ZvD0DAPZac-37">
          <mxGeometry x="-0.0602" relative="1" as="geometry">
            <mxPoint as="offset" />
          </mxGeometry>
        </mxCell>
        <mxCell id="4gooobr6W_ZvD0DAPZac-41" value="" style="shape=image;verticalLabelPosition=bottom;labelBackgroundColor=default;verticalAlign=top;aspect=fixed;imageAspect=0;image=https://tudip.com/wp-content/uploads/2020/04/pub-sub-in-google-cloud-1.png;" vertex="1" parent="1">
          <mxGeometry x="500" y="550" width="120" height="120" as="geometry" />
        </mxCell>
        <mxCell id="4gooobr6W_ZvD0DAPZac-43" value="" style="endArrow=classic;html=1;rounded=0;exitX=1;exitY=0.75;exitDx=0;exitDy=0;entryX=0;entryY=0.5;entryDx=0;entryDy=0;" edge="1" parent="1" source="4gooobr6W_ZvD0DAPZac-4" target="4gooobr6W_ZvD0DAPZac-41">
          <mxGeometry width="50" height="50" relative="1" as="geometry">
            <mxPoint x="400" y="730" as="sourcePoint" />
            <mxPoint x="450" y="680" as="targetPoint" />
          </mxGeometry>
        </mxCell>
        <mxCell id="4gooobr6W_ZvD0DAPZac-52" value="Pub/Sub" style="edgeLabel;html=1;align=center;verticalAlign=middle;resizable=0;points=[];" vertex="1" connectable="0" parent="4gooobr6W_ZvD0DAPZac-43">
          <mxGeometry x="-0.3031" y="3" relative="1" as="geometry">
            <mxPoint as="offset" />
          </mxGeometry>
        </mxCell>
        <mxCell id="4gooobr6W_ZvD0DAPZac-44" value="" style="endArrow=classic;html=1;rounded=0;exitX=0.5;exitY=1;exitDx=0;exitDy=0;entryX=0.5;entryY=0;entryDx=0;entryDy=0;" edge="1" parent="1" source="4gooobr6W_ZvD0DAPZac-1" target="4gooobr6W_ZvD0DAPZac-41">
          <mxGeometry width="50" height="50" relative="1" as="geometry">
            <mxPoint x="400" y="730" as="sourcePoint" />
            <mxPoint x="450" y="680" as="targetPoint" />
          </mxGeometry>
        </mxCell>
        <mxCell id="4gooobr6W_ZvD0DAPZac-51" value="Pub/Sub" style="edgeLabel;html=1;align=center;verticalAlign=middle;resizable=0;points=[];" vertex="1" connectable="0" parent="4gooobr6W_ZvD0DAPZac-44">
          <mxGeometry x="-0.2" y="-2" relative="1" as="geometry">
            <mxPoint as="offset" />
          </mxGeometry>
        </mxCell>
        <mxCell id="4gooobr6W_ZvD0DAPZac-45" value="Rest" style="rounded=1;whiteSpace=wrap;html=1;" vertex="1" parent="1">
          <mxGeometry x="520" y="360" width="80" height="40" as="geometry" />
        </mxCell>
        <mxCell id="4gooobr6W_ZvD0DAPZac-46" value="Rest/GraphQL" style="rounded=1;whiteSpace=wrap;html=1;" vertex="1" parent="1">
          <mxGeometry x="350" y="470" width="80" height="40" as="geometry" />
        </mxCell>
        <mxCell id="4gooobr6W_ZvD0DAPZac-48" value="Rest" style="rounded=1;whiteSpace=wrap;html=1;" vertex="1" parent="1">
          <mxGeometry x="160" y="370" width="80" height="40" as="geometry" />
        </mxCell>
      </root>
    </mxGraphModel>
  </diagram>
</mxfile>
